<svg id="ICP" xmlns="http://www.w3.org/2000/svg" viewBox="0 0 500 500"><defs><style>.cls-1{fill:#ed4201;}.cls-2{fill:#035db6;}</style></defs><path class="cls-1" d="M258.86,37.74c1.9-1.3,4.33-1,6.5-.83,6.42.63,12.7,2.19,19.09,3,2.15.52,5,.5,6.19,2.74,1,2.65.94,5.58,1.4,8.37a190.46,190.46,0,0,1,2.53,29.88c-17.52-2.66-35.08-5-52.63-7.49,4-9.8,8-19.59,12.34-29.2C255.47,41.87,256.57,39.24,258.86,37.74Z"/><path class="cls-1" d="M167.47,49.05a218.73,218.73,0,0,1,23.78-6.85,7.48,7.48,0,0,1,6.65,3.22c5.57,8.78,10.57,17.89,15.77,26.88.5,1,1.24,2.24.65,3.38-.83,1.08-2.26,1.37-3.48,1.8q-19.29,5.46-38.5,11.1c-2.92.73-5.86,2.36-8.88,1.16,0-12-.1-24,.14-36A5.3,5.3,0,0,1,167.47,49.05Z"/><path class="cls-1" d="M341.62,70.56c2.09-1.62,3.85-4.19,6.74-4.24,2.06-.27,3.89.83,5.52,1.94,6.3,4,12.3,8.37,18.42,12.6a6.85,6.85,0,0,1,3,3.89c.44,1.21-.28,2.39-.61,3.53-3.84,11.27-8,22.45-12,33.65-14.79-10.12-29.57-20.29-44.39-30.36C326,84.47,333.79,77.49,341.62,70.56Z"/><path class="cls-1" d="M106.14,82.73c2-1.35,5-2.08,7.13-.56,9.84,6.42,19.42,13.21,29.07,19.91-13.5,11.59-26.89,23.31-40.41,34.87-5.16-9.7-10.28-19.41-15.25-29.21-.79-1.58-1.92-3.23-1.39-5.08A5.84,5.84,0,0,1,87.67,99C93.67,93.4,99.74,87.87,106.14,82.73Z"/><path class="cls-1" d="M165.75,102.35C187,92.19,210.36,87,233.82,86a189,189,0,0,1,26.39.48A155.82,155.82,0,0,1,331.61,112a166.83,166.83,0,0,1,18.53,14.09,69.75,69.75,0,0,1,17.52,25.09,70.65,70.65,0,0,1,4.83,31.34,73.59,73.59,0,0,1-11,33.08,92.35,92.35,0,0,1-18.28,20.52,170,170,0,0,1-83.08,40.4c-9.73,1.72-19.71,3.06-29.57,1.61a70.94,70.94,0,0,1-18-4.91,27.5,27.5,0,0,1-15.64-20.65c-.87-5,0-10.19,1.49-15,3-9.72,8.83-18.39,15.83-25.7,1.79-2,3.89-3.77,5.73-5.75-2.87,5-6.05,10-7.54,15.65-1.87,6.64-1.85,14.23,1.8,20.29,2.67,4.7,7.33,8,12.31,9.82,8.43,2.87,17.55,2.56,26.27,1.5C269.86,251,285.63,243,299.51,233a100.83,100.83,0,0,0,14.95-13,66,66,0,0,0,15.15-26.46c2.46-8.08,3.07-16.87.67-25-2.55-9.15-9.22-16.69-17.15-21.68-9.35-5.85-20.09-9-30.82-11.21C263,132,242.76,134.19,224.36,141c-24.43,9.21-46.85,25.13-61.27,47.14a107.35,107.35,0,0,0-14.56,35c-4.89,23.33-4.78,48.19,3.3,70.82,7,20.25,20.52,37.9,37.16,51.25a127.44,127.44,0,0,0,53.16,25.44,145.51,145.51,0,0,0,28,3.58c6.48.47,13-.1,19.44-.3a161.54,161.54,0,0,0,67.16-19.48,157.16,157.16,0,0,0,24.67-16.85c3.95-3.39,8-6.67,12.17-9.72a25.16,25.16,0,0,1-1.37,4.23,206.57,206.57,0,0,1-30,41.52A155.06,155.06,0,0,1,298,414.76c-23.17,7.48-47.78,11-72.11,8.92a167.35,167.35,0,0,1-67.71-20.82c-16.47-9.08-31.72-20.59-44.16-34.75a174.14,174.14,0,0,1-32.15-53.55,164,164,0,0,1-11.44-69.41,172.31,172.31,0,0,1,12.22-54.94c11.86-29.35,32.81-54.6,58.33-73.14A175.33,175.33,0,0,1,165.75,102.35Z"/><path class="cls-1" d="M47.92,156c1.15-2.45,3.85-4.54,6.67-3.8,11.26,1.59,22.39,4,33.62,5.72C80.94,174,73.54,190.08,66.34,206.21c-7.32-5.39-14.67-10.74-21.78-16.39-2.21-1.84-5.13-2.94-6.67-5.48-1.39-2.35-.75-5.24.33-7.58C41.37,169.81,44.47,162.84,47.92,156Z"/><path class="cls-1" d="M28.89,239.67c9.48-2.92,19.15-5.17,28.73-7.74a6.42,6.42,0,0,1,3.47.21c0,17.43,0,34.86,0,52.29-10-2.2-20-4.39-30-6.9a6.68,6.68,0,0,1-5.5-6q-.76-12.63-.61-25.29C24.86,243.59,26.23,240.48,28.89,239.67Z"/><path class="cls-1" d="M43.59,329.94q11.76-10.11,23.74-20,11.92,23.81,23.9,47.59c-10.48,2.13-20.92,4.44-31.43,6.37-2.09.36-3.94-1.24-5-2.84-4.57-7.88-8.65-16-12.57-24.22C41.14,334.58,41.48,331.47,43.59,329.94Z"/><path class="cls-1" d="M107.78,376.05c14,11.45,28.13,22.74,42.12,34.19q-12.5,9.5-25.15,18.79c-.88.59-1.77,1.5-2.93,1.14-2.46-.17-4.19-2-6-3.42-6.49-5-12.91-10.2-19.18-15.53-1.88-1.45-3-4.23-1.88-6.45C99,395.14,103.4,385.61,107.78,376.05Z"/><path class="cls-1" d="M327.37,412.34q21.61-16.69,43.31-33.26c2.86,6.95,5.8,13.85,8.58,20.82,1,3.88,3.18,7.42,3.71,11.44.3,2.62-1.78,4.63-3.67,6.1-5.34,4.16-10.72,8.27-16.31,12.09a32,32,0,0,1-5.76,3.3c-2,.54-4.31.65-5.9-.78C343.08,425.8,335.35,418.91,327.37,412.34Z"/><path class="cls-1" d="M175.53,421.15c11.29,3.08,22.46,6.79,34.06,8.54,4.29.72,8.59,1.42,12.9,2,1.37.26,3.12.35,3.87,1.74s-.31,2.91-.92,4.19c-4.1,7.49-8.07,15-12.43,22.39a5.93,5.93,0,0,1-6.43,3.1c-9-1.76-18-3.87-26.9-6.23a5.06,5.06,0,0,1-4-4.55C175.44,441.92,175.52,431.53,175.53,421.15Z"/><path class="cls-1" d="M252.11,433.11c17.29-3.65,34.55-7.44,51.86-11a267.27,267.27,0,0,1-1,28.72c-.2,3.19-2.28,6.7-5.66,7.23a255.87,255.87,0,0,1-26.06,5.14,6.24,6.24,0,0,1-6.68-3.78C260.19,450.73,256.16,441.91,252.11,433.11Z"/><path class="cls-2" d="M369.34,133.34c3.74-.12,7.34-1.37,11.09-1.49,18.77-1.27,38.13-.72,56,5.63,7.21,2.49,14.32,5.55,20.42,10.22a44.52,44.52,0,0,1,17.82,28.57,46.4,46.4,0,0,1-2.07,19.36,96,96,0,0,1-10.13,21.61c-3.9,6.43-8.87,12.1-14,17.59-6.24,6.92-13.46,12.85-20.59,18.83-15,12.69-32.2,22.57-49.85,31.13-9,4.36-18.26,8.21-27.61,11.77a238,238,0,0,1-38,11.3c-12.23,2.49-24.69,3.42-37.06,4.84A147.5,147.5,0,0,1,228,310.21a77.16,77.16,0,0,1-24.24-10.3c-7.82-4.94-14.64-11.81-18.57-20.27-3.8-8.62-4.13-18.41-2.3-27.56a69.68,69.68,0,0,1,12.35-25.56c.92-1.2,1.82-2.42,2.66-3.68-1.56,3.3-2.69,6.78-4,10.18-1.37,3.76-3,7.47-3.5,11.48a34.88,34.88,0,0,0,2.22,20.16c3.92,9.08,11.93,15.91,20.87,19.81,5.16,2.31,10.78,3.14,16.28,4.21,22.56,3.52,45.73.42,67.38-6.4a230.8,230.8,0,0,0,89.06-50.44c3.55-3.64,7.36-7.05,10.52-11.05a100.84,100.84,0,0,0,15.37-22,55.1,55.1,0,0,0,6.35-24.16c.52-9.69-3.34-19.67-10.84-25.95-7.3-6.39-16.83-9-25.84-12C377.6,135.58,373.58,134,369.34,133.34Z"/></svg>