<svg id="police" xmlns="http://www.w3.org/2000/svg" viewBox="0 0 500 500"><defs><style>.cls-1{fill:#fff;}.cls-2{fill:#f8a846;stroke:#f8a846;stroke-width:2px;}.cls-2,.cls-4{stroke-miterlimit:10;}.cls-3{fill:#e48d2e;}.cls-4{fill:#3d3179;stroke:#3d3179;}.cls-5{fill:#db0303;}.cls-6{fill:#ffd400;}</style></defs><path class="cls-1" d="M104.49,205c1.08,6.8,2.54,13.52,4,20.23a300.84,300.84,0,0,0,11,39.2,47.14,47.14,0,0,1-2.35-6.08,261.44,261.44,0,0,1-11.78-46.17A57.77,57.77,0,0,1,104.49,205Z"/><path class="cls-2" d="M249.45,25.24a2.43,2.43,0,0,1,2.15,0Q304.79,45.15,358,65a191,191,0,0,0,8.31,28.73c1.52,3.67,3.14,7.44,6,10.27,6.91,7,13.35,14.69,21.62,20.2a22.8,22.8,0,0,0,7,3.36c4.19.94,8.2,2.55,12.33,3.71-.08,16.37-1.74,32.67-3.29,48.94-3.25,23.59-7.72,47-14.47,69.89a294,294,0,0,1-22.21,56c-9,16.55-19.82,32.26-33.46,45.32-13.73,13.66-27.83,27-42.74,39.33a261.63,261.63,0,0,1-23,17.26c-5.9,3.91-12,7.68-18.64,10.16-2.44.84-5.09,2-7.68,1.1-8.83-2.64-16.64-7.73-24.27-12.75a347.62,347.62,0,0,1-37.71-30.79c-3-2.42-5.53-5.32-8.54-7.72-5.95-5.65-11.52-11.68-17.66-17.12-2.32-2.55-4.64-5.08-6.89-7.69-3.35-4.67-7.24-8.95-10.53-13.67-11.9-16.46-21-34.8-28.18-53.74-11-28.59-17.64-58.67-22-88.92a437.83,437.83,0,0,1-4.33-55.56c4.5-1.53,9.09-2.78,13.53-4.44,8.08-3.72,14.43-10.14,20.63-16.34,2.94-3.23,6.32-6.1,8.67-9.82a44.56,44.56,0,0,0,3.4-6.85A194.29,194.29,0,0,0,142.47,65Q196,45.16,249.45,25.24ZM249,28.7c-2.83.62-3.4,4.72-1.11,6.31,2.08,1.67,5.68.06,5.56-2.69A3.44,3.44,0,0,0,249,28.7Zm-10.27,3.82c-2.52.42-3.78,4-1.84,5.78,1.82,2.39,6.3.93,6.06-2.17C243.26,33.85,240.86,32.11,238.75,32.52Zm20.66,0c-2.63.61-3.36,4.68-1.16,6.22,2.06,1.77,5.87.17,5.78-2.64A3.63,3.63,0,0,0,259.41,32.56Zm-31,3.79a3.64,3.64,0,0,0-2.51,5.35c1.32,2.42,5.46,2.2,6.37-.46C233.59,38.79,231.05,35.76,228.44,36.35Zm42.37,0a3.54,3.54,0,0,0-3.13,4.85c.93,2.58,5.08,3,6.3.4C275.54,39.34,273.42,36.15,270.81,36.34Zm-22.57,1.75C215.18,50.51,182.05,62.76,149,75.23a181.51,181.51,0,0,1-5.84,21.53,66.37,66.37,0,0,1-4.47,10.66c-2,3.81-5.49,6.47-8.29,9.64C124.49,123,118.59,129.22,111,133c-4.23,1.9-8.79,2.87-13.17,4.33-.07,10.13.86,20.23,1.67,30.32,1.13,12.51,2.9,25,5,37.33a57.77,57.77,0,0,0,.92,7.18,261.44,261.44,0,0,0,11.78,46.17,47.14,47.14,0,0,0,2.35,6.08,259.46,259.46,0,0,0,43.37,74.49,29.06,29.06,0,0,0,3.65,3.79c.79-1.93,1.47-4.35,3.57-5.22,3-.06,5.5,2,8,3.46,0-4,0-8,0-12l2,0c0,.82.06,1.64.1,2.47h3v-2.43c1,0,1.94,0,2.92,0,.13,1-.1,2.19.91,2.81.09-.8.17-1.59.26-2.39l1.84-.07.15,2.63h1.4c.07-.71.15-1.42.23-2.13l1.32.12c0,.9,0,1.81.06,2.74,1.44,0,1.66-1,1.56-2.23l1.43,0c0,1,0,2,0,3l3.56,0c.08,3.24-.28,6.52.16,9.74,1.42.54,3,.71,4.2,1.77,2.24,1.86,4.45,3.76,6.71,5.6l2-.09c.29-1.64.62-3.29.93-4.93,3-.69,6-1.44,8.95-2.13l1.61.78c4.16-.39,8.33-.7,12.48-1.22.22-5.53.05-11.08.1-16.62,1.19,0,2.37,0,3.56.05,0,1.34,0,2.69,0,4h4c0-1.37,0-2.73,0-4.09l2.54.07c0,1.15,0,2.32,0,3.48h2.52c0-1.18,0-2.35,0-3.52l3.56,0c0,1.16,0,2.32,0,3.49h3c0-1.17,0-2.34,0-3.51h3.05c0,1.17,0,2.34,0,3.51h3.53c0-1.16,0-2.33,0-3.49,1,0,2,0,3.05,0,.21,1.37-.82,3.94,1.47,3.65,0-.73,0-1.45.08-2.17h3v5h1.48c0-1,.06-2,.1-3l1.93.06c0,1.35,0,2.7,0,4.06h2c0-.85,0-1.71,0-2.56l3,0c.05,5.46,0,10.91,0,16.37a11.94,11.94,0,0,0,3.43.11c2.27-.33,4.11-2,6.45-2.14a35.59,35.59,0,0,1,9.75,1c1.61.25,2.77,1.49,4,2.43.65-.76,1.65-1.44,1.47-2.59.07-3.37-.05-6.75,0-10.12l3,0c0,1.09,0,2.17.09,3.27,1.39-.33.8-1.85,1-2.85,1.8-.31,1.44,1.35,1.49,2.55l1,0c0-.82,0-1.63,0-2.45.68,0,1.36,0,2,0l0,2.23c.75-.38,1.35-1.76,2.32-1.2l.4,1.61c.12-.62.25-1.23.39-1.85,1.81-.25,1.31,1.5,1.39,2.68l.94.06c0-.39.09-1.18.12-1.57l1.94.08c0,2.52,0,5.05,0,7.58a4.9,4.9,0,0,0,5.18-1.62,15.62,15.62,0,0,1,4.29,2.86A186.22,186.22,0,0,0,345,330.09c14.66-17.68,25.14-38.44,33.25-59.83s13.39-43.72,17.27-66.22c3.56-22.06,6.27-44.33,6.59-66.69-3.27-.93-6.53-1.88-9.78-2.88-4.6-1.43-8.51-4.34-12.23-7.3-5.44-4.68-10.35-9.93-15.35-15.07-3.28-2.87-4.87-7-6.44-11A198.38,198.38,0,0,1,351,75.37c-2.16-1.35-4.77-1.85-7.1-2.88Q297.5,55.17,251.05,37.86A3.39,3.39,0,0,0,248.24,38.09ZM217,40.56a3.5,3.5,0,0,0-.34,6.07c2.38,1.86,6.11-.79,5.33-3.63A3.56,3.56,0,0,0,217,40.56Zm63,0a3.48,3.48,0,0,0-.7,5.94c2.28,2,6.24-.27,5.59-3.25C284.81,40.87,282,39.64,280,40.53Zm-73.83,3.91a3.59,3.59,0,0,0-.86,5.38c1.83,2.54,6.48.84,6.25-2.3A3.66,3.66,0,0,0,206.18,44.44Zm84.16,0a3.47,3.47,0,0,0-.93,5.48c1.81,2.15,6,.9,6-2.06A3.44,3.44,0,0,0,290.34,44.44ZM195.8,48.3a3.68,3.68,0,0,0-.9,5.42,3.56,3.56,0,1,0,.9-5.42Zm104.9,0c-2.3,1.23-2.51,5,0,6.18,2.57,1.59,6.08-1.25,5.09-4.11A3.6,3.6,0,0,0,300.7,48.29ZM185.53,52.1c-2.56,1.06-2.64,5.15-.07,6.24a3.45,3.45,0,0,0,5.1-2.87A3.51,3.51,0,0,0,185.53,52.1ZM311.47,52c-2.08,1-2.88,4.14-1.08,5.78,1.87,2.1,5.8.72,6-2.06A3.59,3.59,0,0,0,311.47,52ZM175.19,55.92c-2.46,1-2.87,4.82-.52,6.16,2,1.43,5.4,0,5.43-2.6A3.51,3.51,0,0,0,175.19,55.92Zm146.7,0c-2.42,1-2.78,4.83-.48,6.13a3.53,3.53,0,1,0,.48-6.13Zm-157,3.76a3.53,3.53,0,0,0-1,6c1.94,1.89,5.6.28,5.71-2.37A3.59,3.59,0,0,0,164.89,59.69Zm167.84,0c-2.63.69-3.18,4.59-1,6.15a3.49,3.49,0,0,0,5.36-1.43C338.37,61.83,335.43,58.56,332.73,59.67ZM154.46,63.48c-2.54.79-3.35,4.67-1,6.18A3.57,3.57,0,0,0,159,68C160.07,65.39,157.07,62.44,154.46,63.48Zm188.66,0a3.67,3.67,0,0,0-1.6,5.59c1.66,2.35,5.81,1.4,6.33-1.41A3.64,3.64,0,0,0,343.12,63.5ZM144.76,67.85c-2.69.52-3.84,4.37-1.63,6.12,1.91,1.85,5.54.76,5.89-1.94A3.64,3.64,0,0,0,144.76,67.85Zm209.22,0a3.59,3.59,0,0,0-2.09,6c1.86,2.05,5.82.85,6.12-1.94A3.58,3.58,0,0,0,354,67.84ZM141,79.29a3.53,3.53,0,0,0-.57,6.12c2,1.52,5.48.09,5.45-2.56A3.51,3.51,0,0,0,141,79.29Zm215.1-.05c-2.53,1.07-2.74,5.24-.18,6.39,2.07,1.24,5.24-.29,5.15-2.83A3.53,3.53,0,0,0,356.07,79.24Zm-217.33,11a3.55,3.55,0,0,0-2.94,5.18c1.14,2.58,5.44,2.38,6.33-.3A3.57,3.57,0,0,0,138.74,90.19Zm222.21,0a3.61,3.61,0,0,0-3.28,4.68c.77,2.83,5.33,3.22,6.55.54A3.56,3.56,0,0,0,361,90.17ZM132.26,102c-2.4.71-3.39,4.29-1.44,6,1.75,1.78,5.27,1.1,5.94-1.41C137.79,104,134.86,101.08,132.26,102Zm233.62,0c-2.39.47-3.7,3.67-2,5.57,1.58,2.36,5.77,1.42,6.19-1.39A3.48,3.48,0,0,0,365.88,102.05ZM123,112.36a3.55,3.55,0,1,0,5.16,3.58A3.57,3.57,0,0,0,123,112.36Zm251-.08c-2.59.89-2.93,5-.49,6.22,2.18,1.46,5.56-.4,5.31-3.06A3.47,3.47,0,0,0,374,112.28Zm-260.28,8.78c-2,.94-2.94,3.7-1.38,5.44,1.73,2.53,6.28,1.27,6.32-1.83A3.53,3.53,0,0,0,113.74,121.06Zm269.59,0a3.53,3.53,0,1,0,5,3.75A3.57,3.57,0,0,0,383.33,121.11Zm-280.45,6.5a3.51,3.51,0,0,0-2.25,5.13c1.19,2.65,5.53,2.25,6.42-.43C108,129.82,105.55,126.77,102.88,127.61Zm292.35,0c-2.78.74-3.36,5.06-.8,6.43,2.19,1.48,5.31-.4,5.39-2.93A3.63,3.63,0,0,0,395.23,127.65ZM92,131.41c-3,.06-4.35,4.23-2.1,6.1a3.51,3.51,0,1,0,2.1-6.1Zm315.18,0a3.51,3.51,0,1,0,3.73,4.69A3.49,3.49,0,0,0,407.22,131.45Z"/><path class="cls-2" d="M194.44,94.66c15.44-10.25,33.84-15.57,52.27-16.51,6.75,0,13.55-.26,20.25.78a99.74,99.74,0,0,1,60.51,29.63,80,80,0,0,1,13.21,16.73c10.06,16.16,15.74,35.21,15.22,54.3a94.29,94.29,0,0,1-1.42,18.22A103.87,103.87,0,0,1,326.7,251.4c-1.36,1.09-.37,2.68.12,3.94l-.71.12a5.18,5.18,0,0,0-1.74,2.84c-.85-3-2.49-5.66-3.82-8.44a36.4,36.4,0,0,0-4.26-7.29,31.85,31.85,0,0,0-4.67,3.51,97.69,97.69,0,0,1-40.42,19.81c-4.18.83-8.8,2.17-12.85.15.57-.43,1.14-.86,1.71-1.27a12.44,12.44,0,0,0-11.69-7.23c-4.43.52-8.76,3.45-10.05,7.86l2,.83c-1.56.76-3.21,1.68-5,1.4a101.73,101.73,0,0,1-49.69-23.14,8.25,8.25,0,0,0-2.9-1.9,41.89,41.89,0,0,0-3.22,5.64c-1.68,3.23-3.65,6.32-4.91,9.74-.1-.28-.29-.86-.38-1.15-.21-1.59.11-3.43-1.12-4.68A130.47,130.47,0,0,1,161.58,237a110,110,0,0,1-8.79-17.82,111.36,111.36,0,0,1-6.59-32,41.11,41.11,0,0,1,.06-9.79c.16-7.47,1.76-14.82,3.52-22.05C156.53,130.57,172.61,108.32,194.44,94.66ZM256.3,79.5c.37.9.49,2.45,1.82,2.3,5.75.47,11.45,1.72,17.24,1.73a3.12,3.12,0,0,0-3.06-2.3C267,80.77,261.65,80,256.3,79.5Zm-24.25,1.8a3.2,3.2,0,0,0-2.85,2.59c5.46-.79,10.89-2.14,16.45-2,1.06.12,2.71-.4,2.27-1.8C242.61,79.76,237.3,80.58,232.05,81.3Zm48.4,2.1c-.86,1-.26,2.54.14,3.66a5,5,0,0,0,6,2.41C286.22,86.43,284,82.79,280.45,83.4Zm-60.29,1.67c-1,1-2.73,2.12-2.35,3.79.76,1.36,2.65,1,3.81.41,2-1.06,2.82-3.37,3-5.52A5.54,5.54,0,0,0,220.16,85.07ZM230,86.25c-.88.13-1.4.91-2,1.5,2.47.79,4.87-.6,7.32-.78,3.92-.74,8-.75,11.8-2,.15-1.19-1.29-1-2.06-.95C240.07,84.73,235,85.15,230,86.25ZM257.49,84l.12,1.58a111.93,111.93,0,0,1,15.71,1.9,14.28,14.28,0,0,0,2.77.26c.31-1.71-1.65-1.87-2.85-2.06C268,85.18,262.75,84.5,257.49,84Zm-47.2,7.59A1.57,1.57,0,0,0,212,93.89c1.35-.24,2.87-1,3.3-2.36a30.51,30.51,0,0,0,1-6A14,14,0,0,0,210.29,91.6Zm78.53-.37a4.73,4.73,0,0,0,3.59,2.46A1.87,1.87,0,0,0,294.1,91c-1.27-2.12-3.33-3.6-5.12-5.26C287.26,87.16,288.07,89.51,288.82,91.23Zm-47.4-3.36A71.33,71.33,0,0,0,230,90.07c-.75,1.42,1.25,1.09,2.09,1.11,4.18-.58,8.35-1.29,12.54-1.77.91,0,2-.63,1.63-1.7A15.9,15.9,0,0,0,241.42,87.87Zm16.69-.15c-.7.83.64,1.31,1.23,1.52,3.48.69,7,1,10.53,1.59a12.91,12.91,0,0,0,4.59.23l-.06-1c-3.76-1.29-7.78-1.61-11.7-2.13A14.77,14.77,0,0,0,258.11,87.72Zm-54.74,4.5c-1.16,1.77-2,4.14-1,6.17,1.3.86,2.43-.87,3.35-1.63,1.26-2,2.25-4.44,1.58-6.78C205.91,90.52,204.2,90.82,203.37,92.22Zm93.75-2.06c.14,2.17.1,4.46,1,6.47.72,1.31,2.25,1.58,3.6,1.74,0-2.18.13-4.52-1-6.49C299.94,90.69,298.43,90.44,297.12,90.16Zm-38,.88c.15.67-.39,2,.67,2.13,2.66.63,5.41.79,8.12,1.23,1.78.22,4.11,1,5.06-1.11C268.42,92.12,263.72,91.82,259.1,91Zm23.06.21a15.83,15.83,0,0,0-5.88,3.48c1.86.5,3.92,1,5.75.16a2.27,2.27,0,0,0,1.76-2.79C283.89,91.22,282.75,91.2,282.16,91.25Zm-61.63.12c.09,1-.25,2.2.66,2.9,1.63,1.88,4.36,1.59,6.51,1,0-.23.06-.67.07-.89A18.22,18.22,0,0,0,220.53,91.37Zm10.74,2.4a2.29,2.29,0,0,0,2.46,1c3.61-.52,7.25-.91,10.82-1.65,1,.15,1-2,0-1.51A125.81,125.81,0,0,0,231.27,93.77Zm73.66.35a5.58,5.58,0,0,0,1.47,6.81c.73.58,2.36,1.48,2.44-.12A8.59,8.59,0,0,0,304.93,94.12ZM195.22,100.8a.93.93,0,0,0,1,1.2c3.05-1,4.74-5,2.82-7.71C196.56,95.45,195.43,98.23,195.22,100.8Zm94.54-5.32a20.73,20.73,0,0,0-5.23,1.79.92.92,0,0,0,0,1.59c2.51,1.55,5.65.63,8.09-.59.6-.78,1.26-1.91.81-2.9A6.4,6.4,0,0,0,289.76,95.48Zm-79.06.36c.2,1.11.25,2.59,1.55,3,2.51,1.43,5.46,1.05,8.08.16C218.48,95.67,214.08,95.32,210.7,95.84Zm22.87,2.67a8.68,8.68,0,0,1,4.68,1.43,23.71,23.71,0,0,0,2.36-3.76A5.47,5.47,0,0,0,233.57,98.51Zm29.65-2.27c.81,1.18,1.66,2.34,2.52,3.49,1.64-.66,3.32-1.23,5-1.79C269.15,95.55,265.69,95.08,263.22,96.24ZM276,98.53c.75,2.22,2.56,3.75,4.38,5.09a6.55,6.55,0,0,0,1.33-4.38A37.76,37.76,0,0,0,276,98.53Zm-53.47.85c-1,1.42.42,3.29,1.38,4.4,2-.83,3.11-2.93,4.19-4.68C226.24,99,224.28,98.65,222.52,99.38Zm47,3.83c1.69.45,3.63,1.67,5.33.75,1.35-1.7-1-3.17-2.19-4.14C270.93,99.91,270.12,101.79,269.55,103.21Zm-40.94.26c1.41,2.26,4.41,1.14,5.91-.48-.73-1-1.19-2.44-2.46-2.91C230.18,99.74,229.14,102,228.61,103.47Zm65.62-.51c2,.5,4.17,1.23,6.19.43a12.8,12.8,0,0,0,2.19-2.1c-.79-.57-1.56-1.46-2.64-1.15C297.84,100.44,294.84,100.35,294.23,103Zm-92.37-.52a4,4,0,0,0,3,1.27c2,.05,4.33,0,5.67-1.7a13.89,13.89,0,0,0-7.22-1.33C202.33,100.71,202,101.64,201.86,102.44Zm-15.33.08c-1.46.57-2.44,1.91-3.57,3-1.67,1.78-3.64,3.27-5.12,5.21,0,.2.11.6.15.8,1.49.34,2.46-1.25,3.48-2.07,1.82-2,4.32-3.33,6-5.51C188,103.41,187.25,102.22,186.53,102.52ZM213,103.91a2.09,2.09,0,0,0,.15,3.35,11.6,11.6,0,0,0,4.63-.66c1.74-.71,2-2.74,2.31-4.35C217.67,102.35,215,102.41,213,103.91Zm71-1.7c.11,1.61.38,3.7,2.18,4.29s4,1.69,5.41,0c.59-1-.18-2.24-.94-2.91C288.59,102.54,286.22,102.43,284,102.21Zm32.28,1.68c2.94,2.17,5.54,4.76,8.49,6.9.65.64,1.18-.28,1.72-.59-3.07-2.72-6.08-5.49-9.21-8.14C316.92,102.66,316.59,103.28,316.26,103.89ZM236,103.05a4.91,4.91,0,0,0-1.53,2.68c.95,1.3,2.41-.2,3.28-.89C239.12,103.73,237.07,102.71,236,103.05Zm29.94.25c0,1.59,2.54,3.29,3.48,1.76C269.35,103.28,267.3,103.25,266,103.3Zm40.11.3a17.37,17.37,0,0,0-4.74,2.05l.43.93a7.82,7.82,0,0,0,7.15.51c1.18-.24,1.37-2,.55-2.74A3,3,0,0,0,306.08,103.6Zm-111.71,1.55a1.8,1.8,0,0,0,1.31,2.23,10.71,10.71,0,0,0,6.48-.2c.82-2.32-2.07-3.1-3.8-3.34C197,103.79,195,103.58,194.37,105.15Zm15,.75a30.12,30.12,0,0,0-5.08,2.46c-1,.42-.47,1.68-.65,2.5,2.26-.46,4-2.17,6-3.16C210.61,107.38,210.5,105.79,209.39,105.9Zm83.9.39c1,1.54,2.93,1.8,4.27,2.93a16.25,16.25,0,0,0,2.54,1.69c0-.88.59-2.17-.49-2.67C297.73,107.09,295.61,104.92,293.29,106.29Zm21.92-.77a8.29,8.29,0,0,0-.77,1.82,19,19,0,0,0,2.91,2.68c1.63,1.35,3,3,5,4,.71-.12,1.15-.79.51-1.3C320.24,110.36,317.89,107.77,315.21,105.52Zm-126.51.85a9.79,9.79,0,0,0-3,2.34c-1.8,1.8-3.92,3.23-5.64,5.12l1.35,1.08c2.42-2.73,5.65-4.62,8-7.42C189.82,107.15,189.24,105.84,188.7,106.37Zm30.49.89c1.27,1.9,3.71,2.32,5.83,2.41,1.12,0,2.37-1.18,1.58-2.28C224.53,105.51,221.46,106,219.19,107.26Zm8,3.26a68.7,68.7,0,0,0-17.28,8.32,75.08,75.08,0,0,0-34.14,56.94,48.83,48.83,0,0,0-.08,12.2,75.69,75.69,0,0,0,49.2,65l.78-1.38a34.56,34.56,0,0,0,5.09,1.5c-.84.69-1.47,2.42-2.8,1.76l-1.57-.46a19.43,19.43,0,0,0-2.55,4.3,17.66,17.66,0,0,1,2.58,1.46,10.79,10.79,0,0,1-.61,2.91,5.81,5.81,0,0,0,3.47.24,44.58,44.58,0,0,0,2.66-4.52c2.41-3.84,5.79-7.54,10.38-8.58,6-1.59,12.92-1.66,18.24,1.94a27.32,27.32,0,0,1,7,8.27c.58.89,1,2.06,2,2.56a24.52,24.52,0,0,0,3.34-.79,16.42,16.42,0,0,1-.3-1.95,11.84,11.84,0,0,1,2.07-1.8c-.75-1.48-1.53-2.93-2.34-4.37-1.37.64-2.95,1.42-4.08-.05,0-.21-.05-.64-.07-.86,3.13-.22,6.07-1.41,9.09-2.17a72.38,72.38,0,0,0,26.83-17.33c12.75-12.35,21.21-29.32,22.44-47.11a36.13,36.13,0,0,0-.08-10.28c-.3-10.21-3.36-20.19-7.85-29.31a84.07,84.07,0,0,0-12.91-18.13,75.9,75.9,0,0,0-30.26-18.68C259.86,104.8,242.68,105.39,227.2,110.52Zm49.44-2.69c.49.62.74,1.64,1.64,1.78a7.88,7.88,0,0,0,6.17-1.84,5,5,0,0,0-2.89-1.69C279.71,105.75,278.13,107,276.64,107.83Zm-85.21,1.25c-2.8,2-5.35,4.42-7.93,6.72-.86.6.55,2,1.14,1.2,2.66-2.48,5.23-5.07,7.92-7.51l-.16-.56Zm100.78,1.51c.88,1.67,2.73,3.09,4.69,2.32-.82-1.57-1.56-3.58-3.47-4.06C292.74,109.11,291.92,109.73,292.21,110.59Zm18.93-1.82c1.76,2.51,4.2,4.42,6.39,6.53.85.58,2,2.12,2.83.72a44.36,44.36,0,0,0-4.42-4.57C314.6,110.17,313.2,108.53,311.14,108.77Zm-104.4,4.66a4.31,4.31,0,0,0,5.06-2.7c-.26-.58-.54-1.14-.85-1.69A7.79,7.79,0,0,0,206.74,113.43Zm-12.43-2c-2.67,2.19-5.17,4.61-7.76,6.9-.92.55.5,2,1.14,1.12,1.85-1.57,3.38-3.48,5.25-5a20.2,20.2,0,0,0,3.93-4A3.8,3.8,0,0,0,194.31,111.43Zm17.49.84c.72.86,1.51,2.12,2.85,1.71s3.42-.73,4-2.36C216.87,109.31,213.6,110.73,211.8,112.27Zm73.36-.63c1,1.22,2.68,1.57,4,2.32.84-.49,1.94-.74,2.35-1.73C290.48,110.06,286.37,109.43,285.16,111.64Zm22.2-1.18c2.58,3.35,5.88,6.08,8.91,9l1.51-1.28c-2-2.08-4.37-3.83-6.45-5.85A5.85,5.85,0,0,0,307.36,110.46ZM300,113.83a13.28,13.28,0,0,0,.84,2.44,8,8,0,0,0,2.87,1.53c.11-.36.32-1.08.42-1.44l1.76-1.55C304.35,113.11,302,113.65,300,113.83Zm-101.64.52a14.14,14.14,0,0,0,2.2,3.53c1.62-.64,3.63-1.58,3.54-3.65A34.38,34.38,0,0,0,198.34,114.35Zm-23.67.73a26,26,0,0,0-2.62,8.29c.91-.27,2.06-.29,2.61-1.18a10,10,0,0,0,1.85-6.07C176.28,115.35,175.47,114,174.67,115.08ZM327,116a51.74,51.74,0,0,0,1.34,6l2.25,1c.23-.72.88-1.42.62-2.23-.62-2.16-1.59-4.2-2.38-6.29C328.19,114.87,327.32,115.17,327,116Zm-123.73,1.71c1.15.81,2.52,2.32,4,1.37,1.06-.62,3.14-1.92,2.11-3.28C207.21,114.48,204.72,115.94,203.28,117.68Zm91-1.22c.11,1.66,2,2.21,3.34,2.59s2.12-1.22,2.9-2a12.46,12.46,0,0,0-4.83-1.79C295,115.16,293.94,115.61,294.25,116.46Zm13.13-.55c-.27,2.74,1.57,4.88,3,7a3.62,3.62,0,0,0,2.09,1.57c1.51-1.16.77-3.4.25-4.9C311.9,117.3,309.5,116.46,307.38,115.91Zm-114.53,1.64c-2,1-2.32,3.55-2.71,5.52-.32.79.58,2,1.39,1.36,2.86-1.68,4.43-5,5.26-8.09A12.61,12.61,0,0,0,192.85,117.55Zm108.29,2.9a13.59,13.59,0,0,0,3.34,4.15c.86,0,.91-1.09,1.34-1.63.45-.32.91-.65,1.35-1-.31-1.24-1.92-1.25-2.88-1.73C303.28,120.06,301.7,119.11,301.14,120.45Zm16.64.83a15.7,15.7,0,0,0,8.55,2c.29-1.51-.85-2.7-2-3.46A7.19,7.19,0,0,0,317.78,121.28ZM176.7,122.69c2.69,2.27,6.4.42,8.93-1.19-1.93-1-4.11-1.75-6.28-1.28A11.29,11.29,0,0,0,176.7,122.69Zm19.49-.66c.89,1,1.88,2,2.82,3a11.73,11.73,0,0,0,3.31-4.84A13.77,13.77,0,0,0,196.19,122Zm-28.14-.22a19.87,19.87,0,0,1-1.16,5.7c-.47,1,.48,1.9,1.12,2.56.5.46,1.33,1.22,2,.49C171.94,127.79,170.59,123.75,168.05,121.81Zm164.76,8.07c2,1.4,3.28-1.4,4.13-2.83a24.94,24.94,0,0,1-1.59-5.35A7.5,7.5,0,0,0,332.81,129.88Zm-158.93-3.72c-1,.34-1.76,1.92-1,2.77,3,1.19,8.11-.3,7.73-4.23A29.66,29.66,0,0,0,173.88,126.16Zm17.71-.15a3,3,0,0,0-1.5,3c.07,1.58,2.2,1.57,3.24,1a7.58,7.58,0,0,0,3.65-5.32C195.16,125,193.22,125.07,191.59,126Zm115.2-1.43c.22,3,2.56,5.13,5.28,6,.84-1,1.78-2.31,1-3.64C312.11,124.48,309,124.64,306.79,124.58Zm15.87,0c.42,1.6,1.15,3.29,2.78,4,1.79,1.07,3.87.25,5.73-.16-.25-.92-.33-2.21-1.45-2.52A35.32,35.32,0,0,0,322.66,124.61Zm-6.32.48a16,16,0,0,0-.77,4.55,4.56,4.56,0,0,0,3.41,3.78c1.77-.08,2.3-2,2-3.49C319.91,127.92,318.05,126.51,316.34,125.09Zm-133.48,4.79c-.83,1.29-.51,3.68,1.25,3.94,3.2-1,5.47-5.87,2.48-8.38A39.32,39.32,0,0,0,182.86,129.88Zm153.53,3.54a10.4,10.4,0,0,0,1.12,3.69c.38.41.73,1.91,1.46,1.14,1-1.41,1.27-3.22,2.5-4.47a14.63,14.63,0,0,0-1.89-6A23.72,23.72,0,0,0,336.39,133.42Zm-174.52,1a9.45,9.45,0,0,1,1.9,4.17c1.42-.76,3-1.85,3.25-3.57a39,39,0,0,0-2.92-6.57C162.15,129.56,162.06,132.41,161.87,134.43Zm163.41-3.85a15.26,15.26,0,0,0,3.64,3.75,12,12,0,0,0,5.05.43,2.22,2.22,0,0,0-.35-1.81A10.48,10.48,0,0,0,325.28,130.58Zm-156.2,4.7a14,14,0,0,0,5.07-.5,12.19,12.19,0,0,0,3.44-3.2c-.42-1-1.73-.45-2.55-.52C172.64,131.5,169.44,132.43,169.08,135.28Zm143-1.44c1.34,1.55,2.66,3.35,4.7,4a1.62,1.62,0,0,0,2.22-1.74c-.75-1.78-2.68-2.69-4.41-3.26C313.56,132.21,312.84,133.21,312.13,133.84Zm-128.19,4.7a12.14,12.14,0,0,0,5.95-2.73c.46-.65,1.64-2.19.33-2.56C187.12,132.74,183.54,135.12,183.94,138.54Zm138-4.35c-.74,1.83-.12,3.8.25,5.64a11.77,11.77,0,0,0-4.13-.3c-.27,1.48.52,2.84,1,4.2a31.18,31.18,0,0,1,5,.52c.48-1.27.11-2.63.22-3.95,1.41-.43,2.87.15,4.28.33.19-2.66-2.11-4.37-4-5.76C323.72,134.43,322.84,133.49,321.93,134.19Zm-147.71,7c1.58-.09,3.21-.79,4.77-.27.21,1.25-1.19,2.69.08,3.66a29.14,29.14,0,0,1,5.11-.35c1.1-1,1-2.83,1.06-4.24-1.38-.45-2.83.21-4.22.39.25-1.44.72-2.82,1.07-4.22a14.67,14.67,0,0,0-1-2.12A10.09,10.09,0,0,0,174.22,141.16Zm155.08-4a5.48,5.48,0,0,0,4.9,4.62c1.19,0,2.94.15,3.34-1.3a8.36,8.36,0,0,0-3.35-3.37C332.62,136.49,330.91,137,329.3,137.15Zm11.46,6c.21,1.09,1.44,2.38,2.59,1.63a7.55,7.55,0,0,0,1.89-4.39c0-1.76-1.15-3.15-2.37-4.26A16.19,16.19,0,0,0,340.76,143.17ZM158,142.74c.39,1.51,1.71,2.41,3,3.15,1.8-2.13,1.38-5,.42-7.45-.29-.65-.61-1.71-1.55-1.47A5,5,0,0,0,158,142.74Zm11.22-5.45c-1.54,1.19-2.52,2.93-3.75,4.41.45.34.92.65,1.4,1a7.4,7.4,0,0,0,6.17-3.08,2,2,0,0,0,.36-2.31A9.22,9.22,0,0,0,169.18,137.29Zm157.47,5.83c-1.54,1.44,0,3.36.69,4.8a2.74,2.74,0,0,0,4.1,1.15c.67-1.43-.39-2.94-1.3-4S328.06,143,326.65,143.12Zm-151.51.65a6.23,6.23,0,0,0-3.75,5c-.13,1.12,1.3,1.69,2.2,1.24,2.19-.51,2.85-2.93,3.36-4.82C177.19,144.14,176.15,143,175.14,143.77Zm157.73.12a9.53,9.53,0,0,0,8.66,6.08,5.29,5.29,0,0,0-2.09-4.39C337.67,143.92,335.12,144,332.87,143.89Zm-169.8,2.59a4.49,4.49,0,0,0-1.68,3.16c-.24,1.27,1.53.77,2.2.6a11.17,11.17,0,0,0,6.64-6A10.66,10.66,0,0,0,163.07,146.48ZM345,151.74a11.7,11.7,0,0,0,2.68-2.76c.57-1.61.12-3.32-.31-4.9C344.79,145.47,343,149.19,345,151.74Zm-189.45-7c-.21,2.25-1.65,5.28.77,6.81.69,1,2.67.65,2.27-.73C158.18,148.57,158,145.59,155.51,144.7Zm166.23,2.6a28.93,28.93,0,0,0,.68,4.46c1.42,1.55,3.72.25,4.19-1.49C325.94,148.25,323.71,147.35,321.74,147.3Zm-145.83,3.5c0,1.8,2.16,2.33,3.61,2.53a13.86,13.86,0,0,0,1.38-5.48C178.69,147.42,176.88,149,175.91,150.8Zm173.16.73c-1,1-.45,2.41-.19,3.55a107.66,107.66,0,0,1,3.06,20.68c.2,3.62-.26,7.27.15,10.88l.58.69.51-.19c1.55-11.06,0-22.29-2.65-33.07a9.45,9.45,0,0,0-1.13-2.77Zm-198.4,9.14a108,108,0,0,0-2.45,25.48,10,10,0,0,0,.54,2.69c.46-.7,1.38-1.24,1.36-2.17.15-3.63-.13-7.27.15-10.9a109,109,0,0,1,3.34-19.31c.34-1.54,1.22-3.45-.35-4.63A37.11,37.11,0,0,0,150.67,160.67Zm181-7.54c-.79,2.29-.54,5.36,1.48,6.9.51-.4,1-.84,1.46-1.28l1.52-.51a9.56,9.56,0,0,0-2.25-3.87C333.24,153.79,332.66,152.75,331.66,153.13Zm9.64-.26c-.91,1.39,0,3,.29,4.49,1.83,6.16,2.23,12.61,2.71,19,.16,1.87-.48,4.22,1.47,5.37a15.15,15.15,0,0,0,.18-6,91.31,91.31,0,0,0-3.17-20.45C342.47,154.37,342.33,153.2,341.3,152.87Zm-174.68,5.85a32.41,32.41,0,0,1,3.2,1.54c1.52-1.92,3.41-5.22,1-7.17C169.2,154.79,166.7,156.14,166.62,158.72Zm160-5.35a17.23,17.23,0,0,0,.48,7.59c1.68-.4,3.19.4,4.55,1.31A19.26,19.26,0,0,0,330,156.7,10.71,10.71,0,0,0,326.59,153.37ZM160.4,154a88.24,88.24,0,0,0-4.47,28.59,3,3,0,0,0,1.84-2.95,80.26,80.26,0,0,1,4.33-25.69Zm176.56.53a64.94,64.94,0,0,1,3.13,20.22c0,1.39.13,3.2,1.81,3.58.41-8.28-1.47-16.47-3.4-24.48ZM171,162.87l2.29-1.49c.7.06,1.43.47,2.12.19a22.53,22.53,0,0,0,.79-7.36C172.85,155.56,171,159.39,171,162.87Zm174.36-6.1a100.9,100.9,0,0,1,2.32,23.88c.08,1.16.05,3.77,1.79,3.38a88.65,88.65,0,0,0-3-29.62C345.85,155,345,155.75,345.37,156.77Zm-182.08,1.92A89.16,89.16,0,0,0,160,179.26c.45-.27.89-.55,1.31-.85.74-2.3.68-4.75,1-7.11.6-5.59,2.42-10.93,3.35-16.45C163.85,155.17,163.82,157.27,163.29,158.69Zm-8.14,1.1a84.56,84.56,0,0,0-2.86,25.32,8.46,8.46,0,0,0,1.49-1.24c.92-5.65.39-11.43,1.47-17.06.3-3.88,2.07-7.54,1.84-11.45C155.78,156.46,155.62,158.25,155.15,159.79Zm180.28,1.86a5.82,5.82,0,0,0-1.3,6.49c.41,1.83,2.64,1.36,4,1.16.31-2.05-.59-3.91-1.41-5.73C336.34,162.89,336.26,161.91,335.43,161.65ZM167,162.14c-1.35,2-3.54,4.24-2.69,6.83.26.59.49,1.83,1.41,1.48C169.52,169.86,169.8,163.91,167,162.14Zm162.19,8a6.8,6.8,0,0,0,2.9,6.2c4.68,4.56,9.22,9.26,14,13.72,2.51,1.89,4.34,4.57,7.09,6.15,0-1.7,1.44-4-.27-5.32-5.57-4.79-10.91-9.83-16.45-14.65C334,174.2,332,171.68,329.17,170.09ZM148.71,192.4c-1.48,1.21-.28,3.29-.24,4.84,2.48-1.27,4-3.7,6.16-5.41,4.85-4,8.89-8.89,13.72-12.93,1.49-1.41,3.1-2.72,4.47-4.26a11.16,11.16,0,0,0,0-3.91C164.73,177.86,156.93,185.37,148.71,192.4Zm181.11-14.3a20.42,20.42,0,0,0-.07,4.21c1.44,2.19,3.62,3.76,5.56,5.48,1.86,1.54,3.41,3.42,5.29,5,3.75,3,6.73,6.78,10.4,9.86.18-1.46,1.46-3.34,0-4.52-5.25-5.08-10.23-10.43-15.75-15.22C333.48,181.25,332.08,179.12,329.82,178.1ZM164.09,186c-2.9,2.36-5.3,5.25-8.23,7.58a74.85,74.85,0,0,0-6.05,5.9c-.73.67-.27,1.65-.05,2.43.26.51.35,1.61,1.16,1.49,3.11-2.69,5.77-5.88,8.92-8.54s5.92-5.7,8.9-8.52a25.69,25.69,0,0,0,3.1-2.89c.85-1.35.5-3,.46-4.51C169.07,180.69,166.9,183.74,164.09,186Zm166.41.18a6.93,6.93,0,0,0,.33,9c1.1-1.87,2.09-4,1.62-6.23C332.23,187.82,331.87,186.28,330.5,186.19Zm-158.86,10c.85-2.16,1.85-4.57.89-6.88-.4-.84-.64-2.52-1.87-2.32C167.93,189.39,169.07,194.05,171.64,196.16ZM332,200.27c.27.51.65,1.22,1.33.78a8.07,8.07,0,0,0,4.18-9.09A8.73,8.73,0,0,0,332,200.27Zm-167.39-7.81c-1.66,3.58.52,8.75,4.51,9.6C170.29,198.27,168.06,194.14,164.59,192.46ZM339.77,196a8.26,8.26,0,0,0,1,7.52c.81,1,2.33.41,2.83-.57.33-2.25.11-4.94-1.74-6.51C341.26,196.13,340.24,195.1,339.77,196ZM158,199.7c-.09,1.91-.56,4.35,1.16,5.71.81-.75,2-1.31,2.21-2.49.56-2.09,1.14-4.35.27-6.44C160.17,197.15,158.08,197.76,158,199.7Zm169.25-1.65c-1.77,1.78-1.07,4.91.22,6.85.92.61,1.49-.67,2-1.23C331.08,201.76,329.59,198,327.24,198.05Zm-155.59,3.84c-.61,1.85.9,3.41,2.18,4.53a10.2,10.2,0,0,0,1.21-7.6C173.54,199.3,172,200.22,171.65,201.89Zm157.46,8.4a14.64,14.64,0,0,0,4.7-2.32c1-1.19.93-2.81,1.14-4.24C331.62,203.76,329,207.1,329.11,210.29Zm9.2,3.84c1.74.58,2.44-1.5,2.15-2.86a57.09,57.09,0,0,0-2.39-7.66C335.67,206.65,336,211.15,338.31,214.13Zm-171.76-9.4c.19,1.39,0,3,.76,4.23,1.17,1.29,3,1.72,4.56,2.26-.33-1.84-.62-3.92-2.13-5.2A6,6,0,0,0,166.55,204.73Zm-5.26,5.3c-.4,2-1.22,4.47.71,6a12.74,12.74,0,0,0,2.81-5.93,23.28,23.28,0,0,0-1.41-5.15C161.92,206.21,161.75,208.24,161.29,210ZM343,208c-.64,1.54,1.63,1.65,2.63,1.55,2.76.05,4.55-2.36,6-4.35C348.64,204.56,344.39,204.65,343,208Zm-192.63-1.8c1.17,2.33,3.26,4.81,6.15,4.45.66-.07,2.29,0,1.85-1.1C157.54,206.22,153.29,205.17,150.37,206.16Zm171.85,8.9a3.21,3.21,0,0,0,3.73-1.37c.92-2.18-.13-4.62-1.47-6.38A7.36,7.36,0,0,0,322.22,215.06Zm-147.28-1.78a3.25,3.25,0,0,0,2.81,3.22c1.46-.17,1.86-2,1.7-3.23-.39-1.84-.81-4.17-2.89-4.8A42.46,42.46,0,0,0,174.94,213.28Zm167.33,1.15c-.69,1.95,1.67,2.28,3,2.52a35.27,35.27,0,0,0,2.1-4.7A18.56,18.56,0,0,0,342.27,214.43Zm-188.63-1.12c.77,1.65,1.39,3.65,3,4.68,1.31,0,2.11-1.36,3.06-2.07C158,214.35,155.77,213.88,153.64,213.31Zm171.68,4.1c-1,.92,0,2.3.35,3.3s1.7,1.31,2.16.33c1.38-2.22,3-4.59,2.71-7.35A30.14,30.14,0,0,0,325.32,217.41Zm-154.89-2.24c.06,2.59,1.47,4.86,2.78,7a1.08,1.08,0,0,0,1.91-.18,3.57,3.57,0,0,0,1.09-3.27A12.5,12.5,0,0,0,170.43,215.17Zm157.13,9.93c-.44.63-.49,1.84.57,1.77a85.49,85.49,0,0,0,5.79-9.69l-1.41-1C330.63,219.05,329.17,222.12,327.56,225.1Zm-159.49-5.41c1.47,3,3,6,4.38,9.12.3-.62,1.48-1.14,1-1.93-1.35-3.27-3.32-6.24-4.88-9.41C167.41,217.49,167.7,219,168.07,219.69Zm150.6,3.62c3.34,7.41,6.64,14.85,10.14,22.19.7-.78,2.39-1.4,2-2.69-3.2-8.32-6.24-16.71-9.81-24.87C319.7,219.37,317.58,221.18,318.67,223.31Zm16.4-3.76c-1.58,2.94-3.34,5.77-4.95,8.68-.61,1-.3,2.12-.21,3.18,1.72-2.59,3-5.43,4.6-8.12a25.77,25.77,0,0,0,2.35-4.51C336.31,217.48,335.46,218.92,335.07,219.55ZM164,220.23c1.87,3.67,3.68,7.38,5.59,11a2.71,2.71,0,0,0,1.84,1.41,6.65,6.65,0,0,0-.64-3.71c-1.83-3.27-3.76-6.49-5.59-9.76Zm16.13-1q-5.31,11.43-10.52,22.89c-1,1.83.95,3.34,2,4.58,2-4.3,4.14-8.49,6.15-12.75,1.18-2.75,2.49-5.43,3.88-8.08a7.92,7.92,0,0,0,1.13-3.3A17.18,17.18,0,0,0,180.08,219.21Zm156.85,3.95c-1.47,2.81-3.2,5.49-4.64,8.31a5.32,5.32,0,0,0-.32,3.18c2.86-3.38,4.89-7.42,7-11.31.33-1,1.62-2.7.15-3.37A10,10,0,0,0,336.93,223.16Zm-175.06,1a97.23,97.23,0,0,0,6.67,12.29c.32-.71,1.16-1.43.73-2.27a28.56,28.56,0,0,0-2.47-4.06C165,227.31,164,224,162,221.24,160.59,221.5,161.51,223.34,161.87,224.2Zm178.73.44c-2,4.64-5.06,8.72-7.65,13,.22.34.66,1,.87,1.35a82.89,82.89,0,0,0,9.38-15.21c.37-.88,1.19-2.38-.3-2.63C341.65,221.91,341.27,223.45,340.6,224.64Zm-183.54-2.13c1,3.87,3,7.33,4.9,10.81,1.45,2.52,2.77,5.18,4.84,7.28,1-1.93-.55-3.63-1.42-5.23-2.27-4-4.13-8.15-6.27-12.18C158.82,222.26,157.83,222.24,157.06,222.51Zm157.77,5.27c3.28,7.34,6.65,14.64,9.82,22a6.14,6.14,0,0,0,2.18-3.42c-.14-1.77-1.1-3.34-1.77-4.94-2.89-6.31-5.51-12.75-8.45-19C315,223.63,313.72,225.81,314.83,227.78ZM184.3,223.37c-3.47,7.39-6.67,14.91-10.09,22.32a8.29,8.29,0,0,0-.74,2.34,10.74,10.74,0,0,0,2.12,3,37,37,0,0,0,3.32-6.74c2.49-5.5,4.79-11.1,7.41-16.55C187.17,226,185.28,224.59,184.3,223.37Zm125.86,10a1.72,1.72,0,0,0,2.75,1c2-1.14,1.32-3.69,1.19-5.57C311.82,229.14,310.49,231.29,310.16,233.4Zm-123.82.52a3.62,3.62,0,0,0,3.85,2.21,6.69,6.69,0,0,0-2.81-6.53A12.27,12.27,0,0,0,186.34,233.92Zm120.43-1.41a7.9,7.9,0,0,0-3.82,5.43l2.88-.43,2.19,1.92c.44-2.16,1.06-4.38.75-6.59C308.81,231.65,307.35,232.17,306.77,232.51Zm-113.94,8.27,1.46-1.79,3.25-.11c-.44-2.69-2.49-4.66-4.77-5.93C191,235.21,191.47,238.44,192.83,240.78Zm120.27-4.06c-1.48,1.36-3.34,2.7-3.62,4.85,1.28.1,2.79.8,3.94-.12,1.68-1.2,3.36-3.62,2-5.64C314.56,235.21,313.8,236.29,313.1,236.72Zm-128.54,1.52c.17,2.31,2.2,3.94,4.06,5,.77-.18,1.52-.47,2.28-.72-.62-2.81-3.18-4.4-5.12-6.26C185.31,236.88,184.45,237.36,184.56,238.24Zm115.13,4.38c1.07.82,2.13,1.67,3.16,2.56,2.21-1.1,2.19-4,2.78-6.05A6.24,6.24,0,0,0,299.69,242.62Zm-4.53.63c-.64,1,.45,1.73,1,2.43a21.86,21.86,0,0,0,3.05-3.94,1,1,0,0,0-.24-1.46C297.1,240,295.85,241.8,295.16,243.25ZM194.9,240.74a13.93,13.93,0,0,0,2.21,6,34.18,34.18,0,0,1,3.78-2.65C199.28,242.47,197.41,240.59,194.9,240.74Zm6.08.63a9.75,9.75,0,0,0,2.79,5.31l1.6-.56C204.84,243.91,203.8,241.05,201,241.37Zm105.16,1.87a8.25,8.25,0,0,0-2.65,4.45c.78,0,1.74.36,2.4-.26,1.54-1.14,3.24-2.4,3.6-4.42C308.39,243.08,307.14,242.68,306.14,243.24Zm-115.09,1.55c.89,2.34,3.2,4.86,5.9,4.47a11.78,11.78,0,0,0-3-4.93C193,244,192,244.64,191.05,244.79Zm106.69.39a4.91,4.91,0,0,0-3.33,4.51c1.08,0,2.3.49,3.29-.08a16,16,0,0,0,2.18-3.92C299.23,245.33,298.5,244.64,297.74,245.18Zm-9.17,4c-.79,3.05-1.81,6.1-1.79,9.29l2.14-.79c1.24-4.18,3-8.29,3.1-12.71C290,245.39,289,247.29,288.57,249.16Zm-88.27-2.85c.23,2.12,1.59,3.8,2.87,5.4.83-.64,2.68-.64,2.66-2C204.5,248,202.77,245.87,200.3,246.31Zm7.86,0c.58,3.14,1.33,6.25,1.88,9.41a8.72,8.72,0,0,0,1,3.08,14.29,14.29,0,0,0,2.75,1.34,87.79,87.79,0,0,0-2.46-11.43C211,247.15,209.47,246.63,208.16,246.29ZM284,249.4a22.18,22.18,0,0,0-1.17,3.82c-.59,2.48-1.6,4.86-1.87,7.42,1-.66,2.29-1.16,2.6-2.42a84.67,84.67,0,0,0,2.58-9.39A10.39,10.39,0,0,0,284,249.4Zm-69.88.59a96.63,96.63,0,0,0,2.31,9.9c.23,1.12,1.38,1.46,2.28,1.9-.18-3.35-1.19-6.6-2-9.85C216.42,250.69,215.15,250.26,214.07,250Zm77.57,4.83a6.2,6.2,0,0,0,5.22-2.8,14.44,14.44,0,0,0-3.39-1.45C291.72,251.13,291.71,253.31,291.64,254.82Zm-55.16,1.43c-2.08,2.17-4.23,4.83-4,8,1,.27,2,.57,3,.86a15.67,15.67,0,0,1,9.35-9.67,36.54,36.54,0,0,1,6.78-.24c2.46-.09,4.55,1.39,6.5,2.69,2.36,1.57,3.64,4.17,5,6.58,1-.26,1.93-.51,2.9-.75a7.44,7.44,0,0,0-.61-2.72,18.26,18.26,0,0,0-15.91-10C244.63,250.9,240,253.15,236.48,256.25Zm-33.1-2.85c1.22,1.58,2.73,3.23,4.93,3,0-1.48.42-3.44-1.2-4.28A9.41,9.41,0,0,0,203.38,253.4Z"/><path class="cls-2" d="M221.57,209.79a1.84,1.84,0,0,1,1.79-.71q23.89,0,47.77,0c2.05.05,4.21-.32,6.13.61-8.71.35-17.45.06-26.17.15C241.25,209.77,231.41,209.94,221.57,209.79Z"/><path class="cls-2" d="M220.28,216.18l4.06,0c0,1,0,2,0,3l-4.11,0Z"/><path class="cls-2" d="M227.84,216.15l2.42,0c0,.8,0,1.61,0,2.42l-2.4,0C227.85,217.76,227.85,217,227.84,216.15Z"/><path class="cls-2" d="M232.75,216.13l2.39,0c0,.79,0,1.58,0,2.39-.79,0-1.57,0-2.36,0C232.78,217.72,232.77,216.92,232.75,216.13Z"/><path class="cls-2" d="M238.24,216.13c.79,0,1.57,0,2.37,0,0,.78,0,1.58,0,2.37l-2.38,0C238.22,217.75,238.22,216.94,238.24,216.13Z"/><path class="cls-2" d="M243.64,216.13c3.87.08,7.74,0,11.61.06l0,3a65.86,65.86,0,0,0-11.66-.67C243.63,217.73,243.63,216.93,243.64,216.13Z"/><path class="cls-2" d="M257.77,216.13l2.39,0c0,.79,0,1.59,0,2.39l-2.37,0C257.77,217.75,257.77,216.94,257.77,216.13Z"/><path class="cls-2" d="M263.17,216.13l2.4,0q0,1.5,0,3l-2.37-.7Q263.17,217.29,263.17,216.13Z"/><path class="cls-2" d="M268.6,216.17l2.43,0c0,.8,0,1.61,0,2.41l-2.46,0C268.56,217.72,268.58,216.94,268.6,216.17Z"/><path class="cls-2" d="M273.52,216.19q2.33,0,4.65-.06l0,2.43-4.6-.05C273.52,217.74,273.52,217,273.52,216.19Z"/><path class="cls-2" d="M223.09,223.58c1.07,0,2.31.41,2.23,1.73a27.66,27.66,0,0,0-1.74,7.59C222.78,229.87,222.13,226.65,223.09,223.58Z"/><path class="cls-2" d="M274.8,223.79c1.05,0,1.64,1.28,2,2.14a23,23,0,0,0-1.58,8.12c-2.81-1.57.56-6.11-2.65-7.55A34.14,34.14,0,0,1,274.8,223.79Z"/><path class="cls-2" d="M245.63,229c1.7-2.2,5.8-2,7,.65.69,1.31.13,2.77-.1,4.12q-3.92,0-7.82,0C244.76,232.13,244.46,230.29,245.63,229Z"/><path class="cls-2" d="M230,230.19c1.14-1.38,3.58-2.3,5-.71,1.47.94,1.39,2.72,1.39,4.25q-3.44,0-6.89,0C229.56,232.58,229.34,231.26,230,230.19Z"/><path class="cls-2" d="M263.54,229.51c1.16-1.1,3.36-1.36,4.44,0,1.27,1,.77,2.82.92,4.23l-6.31,0C262.71,232.33,262.45,230.65,263.54,229.51Z"/><path class="cls-2" d="M278.37,231.33c1.06-.59,2.19-1.36,3.47-1a6,6,0,0,1,1.25,3.45l-4.69,0C278.38,233,278.38,232.14,278.37,231.33Z"/><path class="cls-2" d="M216.4,230.89a27.12,27.12,0,0,1,3.61-.08l.63,2.9-4.87,0C216,232.82,215.61,231.6,216.4,230.89Z"/><path class="cls-2" d="M203.29,236.24q44.81.07,89.62,0c.93,0,1.86.05,2.78.11a4.92,4.92,0,0,1-2.78.66c-29.64-.06-59.3,0-89-.06Z"/><path class="cls-2" d="M184.7,248.35l1.69.31c1.09,2,1.47,4.21,2.39,6.23,2.25,5.32,4.92,10.75,9.45,14.49,2.43,2,4.52,4.93,7.9,5.34-1.66-2-3.8-3.56-5.48-5.56-4.25-4.61-7.56-10.36-8.33-16.66a5,5,0,0,1,2.33,2.46c3.19,7.85,8,15.44,15.16,20.17s15.86,6.46,24.27,5.8c-6.94,2.15-14.38.88-21.14-1.31a68.33,68.33,0,0,1-19.47-10.93,39.38,39.38,0,0,1-12.21-15.22c-.47-1-.35-3.2,1-3.12,3,6.34,5.57,13.87,12.18,17.34C190.15,261.86,186.44,255.45,184.7,248.35Z"/><path class="cls-2" d="M312.1,249.26c.27-.9,1.45-.67,2.14-.94-1.55,7.11-5.54,13.31-9.5,19.28,6.55-3.7,9.2-11.22,12.52-17.53.68.88,1.42,2,.86,3.13A40.05,40.05,0,0,1,305.69,269c-6.87,5.3-14.68,9.59-23.19,11.54-5.7,1.57-11.87,2.21-17.59.39,1.74-.14,3.47.05,5.21.06a35.62,35.62,0,0,0,27.26-13.28c3.05-3.48,4.52-7.92,6.58-12a7.72,7.72,0,0,1,3.18-3.2,32.15,32.15,0,0,1-6.81,14.38,93.71,93.71,0,0,1-7.15,7.36,5.17,5.17,0,0,0,3.24-1,45,45,0,0,0,13.8-18.63C310.9,252.84,311.32,251,312.1,249.26Z"/><path class="cls-2" d="M176.13,262.72c.54-2.49.55-5.33,2.55-7.19a47.92,47.92,0,0,1-1,8.85c-1.36,7.76-2.26,15.62-3.94,23.32,2,.3,3.92.63,5.88,1,1.08-6.08,1.85-12.21,2.79-18.31.41-2.52.5-5.16,1.63-7.5,1.22-.09,1.11,1.75,1.06,2.59-.63,5.27-1.33,10.52-2,15.78a76.43,76.43,0,0,1-1.33,8.92l-3.11,0c-.18.67-.35,1.35-.52,2,3.35.53,6.7,1.12,10.07,1.46.47-8.18,1-16.38,1.52-24.56.92.58,2.55.94,2.36,2.36-.56,7.92-1.35,15.84-2,23.76a31.8,31.8,0,0,0-3.24,0c-.46.7-.12,1.66-.19,2.47,3.35-.06,6.69,0,10,0,.32-3.3.61-6.61.69-9.92.23-3.94-.08-8,1.21-11.78a15.32,15.32,0,0,1,1.06,5.79c-.19,5.94-.39,11.88-.51,17.82l-3.05.1.09,2.07c3,0,6,0,9.06,0-.91-4.26-.22-8.62-.23-12.93.18-2.71-.05-5.44.36-8.13,0-.77,1-.82,1.45-1.21a19.47,19.47,0,0,1,.47,3.95c-.05,6.78,0,13.56,0,20.34-4.05-.06-8.11.16-12.15-.08-1.35-.84-.88-3.14-2.53-3.66-2.37-.66-4.87-.39-7.27-.85-1.44-.47-1.19-2.23-1.46-3.42-2.32-.69-4.78-.88-7-1.78-.91-.9-1-2.42-2.06-3.22a16,16,0,0,0-3.6-1,77.43,77.43,0,0,1,1.46-9Q174.4,271.72,176.13,262.72Z"/><path class="cls-2" d="M320.47,255.38c1.5,1.08,1.51,3,1.9,4.67,1.54,7.58,3.12,15.15,4.68,22.73a42.08,42.08,0,0,1,1.23,7.39,20.92,20.92,0,0,0-3.54.58c-.94.89-1.41,2.19-2.45,3-2.08.83-4.41.77-6.51,1.57-.5,1-.76,2.14-1.27,3.17-2.62,1.28-5.71.92-8.44,1.91-.73,1-.69,2.43-1.64,3.19-4.22.45-8.49.43-12.73.68q0-10.69,0-21.4a5.13,5.13,0,0,1,1-3c.51,6.78.92,13.56,1.4,20.34.17.73-.16,2.13,1,2,2.51.17,5,0,7.55.08,0-.69.07-1.39.11-2.07l-3.07-.09c.18-6.14-.24-12.26-.4-18.39a18.3,18.3,0,0,1,1-5.71c1.27,1.37,1.42,3.3,1.51,5.07.14,5.53.26,11.06.52,16.58,3.35,0,6.69,0,10-.06,0-.46,0-1.39,0-1.86l-3.55-.06c-.75-6.64-.89-13.32-1.37-20a25,25,0,0,1,0-4.82,6.69,6.69,0,0,1,1.81-1.35c.74,8,1.34,16.09,2,24.13,3.2-.3,6.39-.7,9.59-1,0-.48.08-1.43.1-1.91-1.23-.29-3.59.37-3.68-1.41-1.06-8-1.79-16.07-3-24.06-.16-.79,0-2.5,1.19-1.94a22.25,22.25,0,0,1,1.52,6.44c.92,6.1,1.92,12.19,2.82,18.29q2.81-.17,5.61-.48c-1.39-7.74-2.72-15.48-4-23.22C320.9,261.42,320.09,258.43,320.47,255.38Z"/><path class="cls-2" d="M197.82,256.51a2.71,2.71,0,0,1,1.66,1.24c4.15,6.25,9.5,11.94,16.29,15.33a32.39,32.39,0,0,0,14,3.57c3.08.17,6.08-.64,9.08-1.2a5.59,5.59,0,0,1,3.24,0c-6.77,2.26-14,4.55-21.19,2.66C210.19,275.38,202.36,266.2,197.82,256.51Z"/><path class="cls-2" d="M298.64,259.23c.7-1.05,1.25-2.39,2.63-2.69-3.45,7-7.95,14-14.67,18.28a27.1,27.1,0,0,1-22.47,2.78c-2.43-.75-4.91-1.32-7.3-2.19a2.89,2.89,0,0,1,1.82-.3c3.45.55,6.83,1.69,10.37,1.63A32,32,0,0,0,292.33,267,47.78,47.78,0,0,0,298.64,259.23Z"/><path class="cls-2" d="M207,261.54c2.67.7,4.24,3.12,6.39,4.64,5.86,4.44,13.2,7.27,20.62,6.79,2.09-.09,4.28-.68,6.28.21-6.56,1.45-13.59,1.48-19.94-.92A27.67,27.67,0,0,1,207,261.54Z"/><path class="cls-2" d="M246.46,262c3.65-1.46,8.55.21,9.85,4.11.41,2.24.45,4.87-1.18,6.67-2.61,3.22-7.85,3.3-10.86.6a6.87,6.87,0,0,1-2.31-6.81C242.49,264.35,244.46,262.86,246.46,262Zm.91,2.39a5,5,0,0,0-2.56,6.75c.76,1.54,2.51,2.24,4.1,2.57a4.67,4.67,0,0,0,5.14-5C254.31,265.33,250.34,263.05,247.37,264.38Z"/><path class="cls-2" d="M285.86,266c2.06-1.73,3.85-4.06,6.68-4.5-5.24,7.15-13.52,12.35-22.49,12.84A30.67,30.67,0,0,1,258.63,273c2.73-.64,5.45.38,8.19.29A29,29,0,0,0,285.86,266Z"/><path class="cls-2" d="M223.25,267.68c3.16.34,6.24,1.2,9.4,1.62,2.4.37,4.84.27,7.26.49-1.22,1.2-3,.87-4.57,1C231.17,270.88,226.41,270.85,223.25,267.68Z"/><path class="cls-2" d="M267.41,269.19c2.84-.4,5.61-1.22,8.46-1.57-2.08,2.09-5.14,2.53-7.94,2.82a42.42,42.42,0,0,1-7.56,0l-1.08-.7A73.5,73.5,0,0,0,267.41,269.19Z"/><path class="cls-2" d="M326.64,269.11c1.38,5.37,2.23,10.86,3.43,16.27.35,1.88,1.06,3.81.59,5.73C329.36,283.77,327.92,276.45,326.64,269.11Z"/><path class="cls-2" d="M240.5,279.85c.89-.71,1.76-1.69,3-1.73a30.78,30.78,0,0,0,4.33,1.18,19.44,19.44,0,0,0,4.07-.5c1.76-.44,3.14,1.13,4.59,1.86A15.08,15.08,0,0,1,240.5,279.85Z"/><path class="cls-2" d="M235.55,283.61c-.8-.91.76-1.48,1.39-1.85,2.3.95,4.22,2.63,6.54,3.54a17.8,17.8,0,0,0,14.09-1.41,16.16,16.16,0,0,1,3.22-1.48,7.68,7.68,0,0,1,2.28,1.24,21.68,21.68,0,0,1-12,5.07A20.14,20.14,0,0,1,235.55,283.61Z"/><path class="cls-2" d="M285.13,281.69c2.11.17,3.83,1.5,5.6,2.55a23.57,23.57,0,0,1-2.14,1.21C287.16,284.51,285.67,283.39,285.13,281.69Z"/><path class="cls-2" d="M217.09,282.53c.66-.51,1.17.25,1.66.6-3.24,2-6.37,4.18-9.7,6-.1-1.88,1.7-2.59,3-3.45C213.76,284.68,215.33,283.44,217.09,282.53Z"/><path class="cls-2" d="M281,283.21c-.51-1.48,1.36-.78,2-.3a74.81,74.81,0,0,1,6.75,4.85l.13,1.32A89.09,89.09,0,0,1,281,283.21Z"/><path class="cls-2" d="M215,286.92a67.69,67.69,0,0,1,6.19-3.82c2.22,0,4.2,1.21,6.21,2-3.92,3.17-8.62,5.22-12.84,7.94-1.67.83-3.53,2.75-5.4,1.29,4.8-3.06,9.91-5.65,14.67-8.79a1.77,1.77,0,0,0-2.47-.4c-4,2.25-7.72,4.83-11.64,7.15l-.88-.83C210.47,289.51,212.93,288.41,215,286.92Z"/><path class="cls-2" d="M272.48,284.65c1.58-1.16,3.77-1.34,5.67-1.41,4.1,2.47,8,5.34,12,7.88l-.24,1.46c-3-.68-5.21-2.95-7.79-4.47-1.83-1.05-3.41-2.71-5.47-3.26l-1.25.61c4.89,3.06,10,5.8,14.86,8.84-.71.31-1.53,1.29-2.3.55-5.13-3.23-10.45-6.19-15.49-9.54C272.49,285.14,272.48,284.81,272.48,284.65Z"/><path class="cls-2" d="M227.66,286.75c1,0,2.06.11,3.1.16.62.71,1.24,1.42,1.88,2.12,1.51-.28,3.66-1.26,4.64.52a17.19,17.19,0,0,1-.18,2.77l3.41,1.32a13,13,0,0,1,2-2c1.43-.28,2.82.41,4.19.71.14.55.29,1.11.44,1.67a22.76,22.76,0,0,0,5,.13l.89-1.78c1.35-.26,2.68-.85,4.07-.73.88.38,1.36,1.29,2,2,1.09-.54,2.39-.87,3.21-1.82a20.25,20.25,0,0,0,.36-2.46c1.17-1.22,2.76-.74,4.18-.32l1.71-1.79c1.23-.07,2.45-.13,3.69-.14-1.67,1.77-3.88,3.83-6.5,3.43a4.75,4.75,0,0,0-1.66.4c.16.73.33,1.45.5,2.18a58,58,0,0,1-6.38,2.09c-.94-.31-1.71-1.14-2.73-1.1-1.15.75-2.22,1.83-3.72,1.62-2.18-.11-4.74.59-6.53-1-1.29-1.45-2.87.57-4.35.31a35.47,35.47,0,0,1-5.88-2c.34-.68.68-1.36,1-2a4.56,4.56,0,0,0-3.54-.38A43.89,43.89,0,0,1,227.66,286.75Z"/><path class="cls-2" d="M227.91,289.44c.5.63,1.29,1.2,1.34,2.08.2,2.9,0,5.82.07,8.72h5c.06-.9.09-1.81.23-2.69s1.23-1.08,1.84-1.57c.22,2.09.39,4.19.57,6.28h5.53c.37-1.73.76-3.45,1.26-5.14a25.62,25.62,0,0,1,2.1,3.81,25.61,25.61,0,0,0,7.47.11c1-1.22,1.22-2.94,2.54-3.92.31,1.85.51,3.71.73,5.57H262c.26-2.25.43-4.51.6-6.77.59.27,1.17.56,1.75.89a24.65,24.65,0,0,1,.24,3.44h5q0-4.58,0-9.13c.44-.43.89-.85,1.34-1.27,1.17,3.51.36,7.28,1.29,10.83.75,1.64,2.94.86,4.36,1.12.42-3.71.4-7.45.69-11.17,1.78,2.56,1.35,5.76,1.35,8.7,1.52-.11,3.18.18,4.6-.44.56-1.11,1-2.3,1.5-3.43a40.32,40.32,0,0,1,.47,4.14c-1.84,0-3.68,0-5.51.1-.41,1.29-.23,3-1.49,3.86a21.78,21.78,0,0,1-5.29.11c-2.8-1.92-7-2.26-9.72,0a30.78,30.78,0,0,0-6.36.34l-.36.31a3.21,3.21,0,0,1-2.71-.11l1.44.1,1.17-1c-1.13-.73-2.24-1.77-3.68-1.68a50.12,50.12,0,0,0-7,.11,14.39,14.39,0,0,0-2.25,1.88c-1.78.05-3.57.15-5.34,0-1.55-.09-2.87-1-4.35-1.37a8.73,8.73,0,0,0-7.18,1.34c-1.75.05-3.5,0-5.26,0-.45-1.34-.9-2.67-1.36-4-1.92-.07-3.85-.08-5.77-.09a9.28,9.28,0,0,1,.58-3.85c1.21.6.87,2.27,1.29,3.36,1.5-.1,3.52.74,4.59-.64.81-2.56-.89-5.83,1.36-7.86.7,3.67.4,7.4.44,11.11l4.46,0c.42-3.51.38-7.07,1-10.55Z"/><path class="cls-2" d="M286.63,297.09l.51.29a10.94,10.94,0,0,1-.25,4.26C286.74,300.12,286.67,298.6,286.63,297.09Z"/><path class="cls-2" d="M208.61,305.28a12.88,12.88,0,0,1,.78-6.73c-.36,2.38-.36,4.8-.72,7.18C208.66,305.62,208.62,305.39,208.61,305.28Z"/><path class="cls-2" d="M306.87,302.64l.62-.24-.76,3.37C306.76,304.73,306.78,303.69,306.87,302.64Z"/><path class="cls-3" d="M249,28.7a3.44,3.44,0,0,1,4.45,3.62c.12,2.75-3.48,4.36-5.56,2.69C245.62,33.42,246.19,29.32,249,28.7Z"/><path class="cls-3" d="M238.75,32.52c2.11-.41,4.51,1.33,4.22,3.61.24,3.1-4.24,4.56-6.06,2.17C235,36.52,236.23,32.94,238.75,32.52Z"/><path class="cls-3" d="M259.41,32.56A3.63,3.63,0,0,1,264,36.14c.09,2.81-3.72,4.41-5.78,2.64C256.05,37.24,256.78,33.17,259.41,32.56Z"/><path class="cls-3" d="M228.44,36.35c2.61-.59,5.15,2.44,3.86,4.89-.91,2.66-5.05,2.88-6.37.46A3.64,3.64,0,0,1,228.44,36.35Z"/><path class="cls-3" d="M270.81,36.34c2.61-.19,4.73,3,3.17,5.25-1.22,2.55-5.37,2.18-6.3-.4A3.54,3.54,0,0,1,270.81,36.34Z"/><path class="cls-3" d="M217,40.56A3.56,3.56,0,0,1,222,43c.78,2.84-3,5.49-5.33,3.63A3.5,3.5,0,0,1,217,40.56Z"/><path class="cls-3" d="M280,40.53c2-.89,4.8.34,4.89,2.69.65,3-3.31,5.23-5.59,3.25A3.48,3.48,0,0,1,280,40.53Z"/><path class="cls-3" d="M206.18,44.44a3.66,3.66,0,0,1,5.39,3.08c.23,3.14-4.42,4.84-6.25,2.3A3.59,3.59,0,0,1,206.18,44.44Z"/><path class="cls-3" d="M290.34,44.44a3.44,3.44,0,0,1,5.07,3.42c0,3-4.19,4.21-6,2.06A3.47,3.47,0,0,1,290.34,44.44Z"/><path class="cls-3" d="M195.8,48.3a3.56,3.56,0,1,1-.9,5.42A3.68,3.68,0,0,1,195.8,48.3Z"/><path class="cls-3" d="M300.7,48.29a3.6,3.6,0,0,1,5.09,2.07c1,2.86-2.52,5.7-5.09,4.11C298.19,53.33,298.4,49.52,300.7,48.29Z"/><path class="cls-3" d="M185.53,52.1a3.51,3.51,0,0,1,5,3.37,3.45,3.45,0,0,1-5.1,2.87C182.89,57.25,183,53.16,185.53,52.1Z"/><path class="cls-3" d="M311.47,52a3.59,3.59,0,0,1,4.94,3.72c-.22,2.78-4.15,4.16-6,2.06C308.59,56.12,309.39,53,311.47,52Z"/><path class="cls-3" d="M175.19,55.92a3.51,3.51,0,0,1,4.91,3.56c0,2.58-3.39,4-5.43,2.6C172.32,60.74,172.73,56.9,175.19,55.92Z"/><path class="cls-3" d="M321.89,55.93a3.53,3.53,0,1,1-.48,6.13C319.11,60.76,319.47,56.91,321.89,55.93Z"/><path class="cls-3" d="M164.89,59.69a3.59,3.59,0,0,1,4.75,3.66c-.11,2.65-3.77,4.26-5.71,2.37A3.53,3.53,0,0,1,164.89,59.69Z"/><path class="cls-3" d="M332.73,59.67c2.7-1.11,5.64,2.16,4.33,4.72a3.49,3.49,0,0,1-5.36,1.43C329.55,64.26,330.1,60.36,332.73,59.67Z"/><path class="cls-3" d="M154.46,63.48c2.61-1,5.61,1.91,4.56,4.54a3.57,3.57,0,0,1-5.6,1.64C151.11,68.15,151.92,64.27,154.46,63.48Z"/><path class="cls-3" d="M343.12,63.5a3.64,3.64,0,0,1,4.73,4.18c-.52,2.81-4.67,3.76-6.33,1.41A3.67,3.67,0,0,1,343.12,63.5Z"/><path class="cls-3" d="M144.76,67.85A3.64,3.64,0,0,1,149,72c-.35,2.7-4,3.79-5.89,1.94C140.92,72.22,142.07,68.37,144.76,67.85Z"/><path class="cls-3" d="M354,67.84a3.58,3.58,0,0,1,4,4.07c-.3,2.79-4.26,4-6.12,1.94A3.59,3.59,0,0,1,354,67.84Z"/><path class="cls-3" d="M236.88,76.42c5.3-.35,10.52-1.62,15.85-1.31,25.42-.65,50.66,8.94,70,25.26a102.36,102.36,0,0,1,30.11,43.72A105,105,0,0,1,358.59,172c1.26,8.16.06,16.43-1.07,24.54a104.76,104.76,0,0,1-24.38,52.07c-1.9,2.44-4.41,4.32-6.32,6.76-.49-1.26-1.48-2.85-.12-3.94a103.87,103.87,0,0,0,27.78-53.59,94.29,94.29,0,0,0,1.42-18.22c.52-19.09-5.16-38.14-15.22-54.3a80,80,0,0,0-13.21-16.73A99.74,99.74,0,0,0,267,78.93c-6.7-1-13.5-.74-20.25-.78-18.43.94-36.83,6.26-52.27,16.51-21.83,13.66-37.91,35.91-44.66,60.69-1.76,7.23-3.36,14.58-3.52,22.05a41.11,41.11,0,0,0-.06,9.79,111.36,111.36,0,0,0,6.59,32A110,110,0,0,0,161.58,237a130.47,130.47,0,0,0,11.51,15.15c1.23,1.25.91,3.09,1.12,4.68a16.05,16.05,0,0,1-3.21-3.06,105.57,105.57,0,0,1-27.47-63.86c.12-6.51-.35-13,.46-19.52A101,101,0,0,1,156.93,130a108.44,108.44,0,0,1,46.38-43.17C213.8,81.41,225.29,78.3,236.88,76.42Z"/><path class="cls-3" d="M141,79.29a3.51,3.51,0,0,1,4.88,3.56c0,2.65-3.44,4.08-5.45,2.56A3.53,3.53,0,0,1,141,79.29Z"/><path class="cls-3" d="M356.07,79.24a3.53,3.53,0,0,1,5,3.56c.09,2.54-3.08,4.07-5.15,2.83C353.33,84.48,353.54,80.31,356.07,79.24Z"/><path class="cls-3" d="M256.3,79.5c5.35.49,10.66,1.27,16,1.73a3.12,3.12,0,0,1,3.06,2.3c-5.79,0-11.49-1.26-17.24-1.73C256.79,82,256.67,80.4,256.3,79.5Z"/><path class="cls-3" d="M232.05,81.3c5.25-.72,10.56-1.54,15.87-1.21.44,1.4-1.21,1.92-2.27,1.8-5.56-.14-11,1.21-16.45,2A3.2,3.2,0,0,1,232.05,81.3Z"/><path class="cls-3" d="M280.45,83.4c3.51-.61,5.77,3,6.16,6.07a5,5,0,0,1-6-2.41C280.19,85.94,279.59,84.44,280.45,83.4Z"/><path class="cls-3" d="M220.16,85.07a5.54,5.54,0,0,1,4.43-1.32c-.15,2.15-1,4.46-3,5.52-1.16.58-3.05,1-3.81-.41C217.43,87.19,219.13,86.1,220.16,85.07Z"/><path class="cls-3" d="M230,86.25c5-1.1,10-1.52,15.09-2.21.77-.08,2.21-.24,2.06.95-3.79,1.23-7.88,1.24-11.8,2-2.45.18-4.85,1.57-7.32.78C228.62,87.16,229.14,86.38,230,86.25Z"/><path class="cls-3" d="M257.49,84c5.26.49,10.5,1.17,15.75,1.68,1.2.19,3.16.35,2.85,2.06a14.28,14.28,0,0,1-2.77-.26,111.93,111.93,0,0,0-15.71-1.9Z"/><path class="cls-3" d="M210.29,91.6a14,14,0,0,1,6-6.07,30.51,30.51,0,0,1-1,6c-.43,1.41-1.95,2.12-3.3,2.36A1.57,1.57,0,0,1,210.29,91.6Z"/><path class="cls-3" d="M288.82,91.23c-.75-1.72-1.56-4.07.16-5.48,1.79,1.66,3.85,3.14,5.12,5.26a1.87,1.87,0,0,1-1.69,2.68A4.73,4.73,0,0,1,288.82,91.23Z"/><path class="cls-3" d="M241.42,87.87a15.9,15.9,0,0,1,4.82-.16c.36,1.07-.72,1.7-1.63,1.7-4.19.48-8.36,1.19-12.54,1.77-.84,0-2.84.31-2.09-1.11A71.33,71.33,0,0,1,241.42,87.87Z"/><path class="cls-3" d="M258.11,87.72a14.77,14.77,0,0,1,4.59.21c3.92.52,7.94.84,11.7,2.13l.06,1a12.91,12.91,0,0,1-4.59-.23c-3.51-.58-7.05-.9-10.53-1.59C258.75,89,257.41,88.55,258.11,87.72Z"/><path class="cls-3" d="M138.74,90.19a3.57,3.57,0,0,1,3.39,4.88c-.89,2.68-5.19,2.88-6.33.3A3.55,3.55,0,0,1,138.74,90.19Z"/><path class="cls-3" d="M361,90.17a3.56,3.56,0,0,1,3.27,5.22c-1.22,2.68-5.78,2.29-6.55-.54A3.61,3.61,0,0,1,361,90.17Z"/><path class="cls-3" d="M203.37,92.22c.83-1.4,2.54-1.7,3.94-2.24.67,2.34-.32,4.83-1.58,6.78-.92.76-2,2.49-3.35,1.63C201.41,96.36,202.21,94,203.37,92.22Z"/><path class="cls-3" d="M297.12,90.16c1.31.28,2.82.53,3.66,1.72,1.11,2,1,4.31,1,6.49-1.35-.16-2.88-.43-3.6-1.74C297.22,94.62,297.26,92.33,297.12,90.16Z"/><path class="cls-3" d="M259.1,91c4.62.78,9.32,1.08,13.85,2.25-.95,2.08-3.28,1.33-5.06,1.11-2.71-.44-5.46-.6-8.12-1.23C258.71,93.08,259.25,91.71,259.1,91Z"/><path class="cls-3" d="M282.16,91.25c.59,0,1.73,0,1.63.85A2.27,2.27,0,0,1,282,94.89c-1.83.88-3.89.34-5.75-.16A15.83,15.83,0,0,1,282.16,91.25Z"/><path class="cls-3" d="M220.53,91.37a18.22,18.22,0,0,1,7.24,3c0,.22-.05.66-.07.89-2.15.62-4.88.91-6.51-1C220.28,93.57,220.62,92.35,220.53,91.37Z"/><path class="cls-3" d="M231.27,93.77a125.81,125.81,0,0,1,13.26-2.14c1-.49,1,1.66,0,1.51-3.57.74-7.21,1.13-10.82,1.65A2.29,2.29,0,0,1,231.27,93.77Z"/><path class="cls-3" d="M304.93,94.12a8.59,8.59,0,0,1,3.91,6.69c-.08,1.6-1.71.7-2.44.12A5.58,5.58,0,0,1,304.93,94.12Z"/><path class="cls-3" d="M195.22,100.8c.21-2.57,1.34-5.35,3.8-6.51,1.92,2.71.23,6.76-2.82,7.71A.93.93,0,0,1,195.22,100.8Z"/><path class="cls-3" d="M289.76,95.48a6.4,6.4,0,0,1,3.65-.11c.45,1-.21,2.12-.81,2.9-2.44,1.22-5.58,2.14-8.09.59a.92.92,0,0,1,0-1.59A20.73,20.73,0,0,1,289.76,95.48Z"/><path class="cls-3" d="M210.7,95.84c3.38-.52,7.78-.17,9.63,3.17-2.62.89-5.57,1.27-8.08-.16C211,98.43,210.9,97,210.7,95.84Z"/><path class="cls-3" d="M233.57,98.51a5.47,5.47,0,0,1,7-2.33,23.71,23.71,0,0,1-2.36,3.76A8.68,8.68,0,0,0,233.57,98.51Z"/><path class="cls-3" d="M263.22,96.24c2.47-1.16,5.93-.69,7.53,1.7-1.69.56-3.37,1.13-5,1.79C264.88,98.58,264,97.42,263.22,96.24Z"/><path class="cls-3" d="M276,98.53a37.76,37.76,0,0,1,5.71.71,6.55,6.55,0,0,1-1.33,4.38C278.55,102.28,276.74,100.75,276,98.53Z"/><path class="cls-3" d="M222.52,99.38c1.76-.73,3.72-.35,5.57-.28-1.08,1.75-2.23,3.85-4.19,4.68C222.94,102.67,221.51,100.8,222.52,99.38Z"/><path class="cls-3" d="M269.55,103.21c.57-1.42,1.38-3.3,3.14-3.39,1.16,1,3.54,2.44,2.19,4.14C273.18,104.88,271.24,103.66,269.55,103.21Z"/><path class="cls-3" d="M228.61,103.47c.53-1.48,1.57-3.73,3.45-3.39,1.27.47,1.73,1.88,2.46,2.91C233,104.61,230,105.73,228.61,103.47Z"/><path class="cls-3" d="M294.23,103c.61-2.61,3.61-2.52,5.74-2.82,1.08-.31,1.85.58,2.64,1.15a12.8,12.8,0,0,1-2.19,2.1C298.4,104.19,296.22,103.46,294.23,103Z"/><path class="cls-3" d="M201.86,102.44c.1-.8.47-1.73,1.41-1.76a13.89,13.89,0,0,1,7.22,1.33c-1.34,1.72-3.68,1.75-5.67,1.7A4,4,0,0,1,201.86,102.44Z"/><path class="cls-3" d="M132.26,102c2.6-1,5.53,1.94,4.5,4.56-.67,2.51-4.19,3.19-5.94,1.41C128.87,106.32,129.86,102.74,132.26,102Z"/><path class="cls-3" d="M365.88,102.05a3.48,3.48,0,0,1,4.15,4.18c-.42,2.81-4.61,3.75-6.19,1.39C362.18,105.72,363.49,102.52,365.88,102.05Z"/><path class="cls-3" d="M186.53,102.52c.72-.3,1.45.89.9,1.38-1.64,2.18-4.14,3.49-6,5.51-1,.82-2,2.41-3.48,2.07,0-.2-.12-.6-.15-.8,1.48-1.94,3.45-3.43,5.12-5.21C184.09,104.43,185.07,103.09,186.53,102.52Z"/><path class="cls-3" d="M213,103.91c2-1.5,4.68-1.56,7.09-1.66-.33,1.61-.57,3.64-2.31,4.35a11.6,11.6,0,0,1-4.63.66A2.09,2.09,0,0,1,213,103.91Z"/><path class="cls-3" d="M284,102.21c2.24.22,4.61.33,6.65,1.38.76.67,1.53,1.91.94,2.91-1.4,1.69-3.72.5-5.41,0S284.09,103.82,284,102.21Z"/><path class="cls-3" d="M316.26,103.89c.33-.61.66-1.23,1-1.83,3.13,2.65,6.14,5.42,9.21,8.14-.54.31-1.07,1.23-1.72.59C321.8,108.65,319.2,106.06,316.26,103.89Z"/><path class="cls-3" d="M236,103.05c1-.34,3.09.68,1.75,1.79-.87.69-2.33,2.19-3.28.89A4.91,4.91,0,0,1,236,103.05Z"/><path class="cls-3" d="M266,103.3c1.33,0,3.38,0,3.48,1.76C268.51,106.59,265.93,104.89,266,103.3Z"/><path class="cls-3" d="M306.08,103.6a3,3,0,0,1,3.39.75c.82.74.63,2.5-.55,2.74a7.82,7.82,0,0,1-7.15-.51l-.43-.93A17.37,17.37,0,0,1,306.08,103.6Z"/><path class="cls-3" d="M194.37,105.15c.63-1.57,2.61-1.36,4-1.31,1.73.24,4.62,1,3.8,3.34a10.71,10.71,0,0,1-6.48.2A1.8,1.8,0,0,1,194.37,105.15Z"/><path class="cls-3" d="M209.39,105.9c1.11-.11,1.22,1.48.24,1.8-2,1-3.71,2.7-6,3.16.18-.82-.37-2.08.65-2.5A30.12,30.12,0,0,1,209.39,105.9Z"/><path class="cls-3" d="M293.29,106.29c2.32-1.37,4.44.8,6.32,1.95,1.08.5.48,1.79.49,2.67a16.25,16.25,0,0,1-2.54-1.69C296.22,108.09,294.28,107.83,293.29,106.29Z"/><path class="cls-3" d="M315.21,105.52c2.68,2.25,5,4.84,7.61,7.19.64.51.2,1.18-.51,1.3-1.94-1-3.33-2.64-5-4a19,19,0,0,1-2.91-2.68A8.29,8.29,0,0,1,315.21,105.52Z"/><path class="cls-3" d="M188.7,106.37c.54-.53,1.12.78.64,1.12-2.33,2.8-5.56,4.69-8,7.42L180,113.83c1.72-1.89,3.84-3.32,5.64-5.12A9.79,9.79,0,0,1,188.7,106.37Z"/><path class="cls-3" d="M219.19,107.26c2.27-1.26,5.34-1.75,7.41.13.79,1.1-.46,2.29-1.58,2.28C222.9,109.58,220.46,109.16,219.19,107.26Z"/><path class="cls-3" d="M227.2,110.52c15.48-5.13,32.66-5.72,48.19-.41a75.9,75.9,0,0,1,30.26,18.68,84.07,84.07,0,0,1,12.91,18.13c4.49,9.12,7.55,19.1,7.85,29.31a36.13,36.13,0,0,1,.08,10.28c-1.23,17.79-9.69,34.76-22.44,47.11A72.38,72.38,0,0,1,277.22,251c-3,.76-6,2-9.09,2.17,2.32-1.18,5.69-.85,7.07-3.38,6.31-2.77,12.59-5.73,18.19-9.79-13-.16-26,0-39.07-.07-16.42,0-32.85-.07-49.28.05a85.42,85.42,0,0,0,13.38,8.21c2.42,1.12,4.79,2.38,7.26,3.42l-.78,1.38a75.69,75.69,0,0,1-49.2-65,48.83,48.83,0,0,1,.08-12.2,75.08,75.08,0,0,1,34.14-56.94A68.7,68.7,0,0,1,227.2,110.52Zm9.27-.61a73.81,73.81,0,0,0-31.37,14.45,75.06,75.06,0,0,0-22,28.66,73.85,73.85,0,0,0,1.71,61.74c2.19,4.29,4.49,8.6,7.68,12.23,1.07-1.64,1-4.93,3.67-4.64,5.8-.08,11.61,0,17.42,0,3.55.23,5.74-4.38,4.31-7.34-1.25-1.25-3.19-2-3.33-4,1.41,0,2.92.47,4.29,0,.89-1.73-1-3.35-1.65-4.91l2.84.13c.8-2.87,1.39-5.79,2.3-8.62a18.39,18.39,0,0,0,2.63,2.59,47.13,47.13,0,0,0,5.94.13c12.7,0,25.39,0,38.08,0a24.34,24.34,0,0,0,4.6-.21,14.22,14.22,0,0,1,3.1-2.47c1,2.8,1.26,5.79,2.07,8.65l2.89.08c-.81,1.17-2.1,2.16-2.29,3.63.51,2.11,3.35,1,4.93,1.31-.49,1-.82,2.26-1.9,2.83-.85.73-2.53,1-2.21,2.45-.06,2.21,1.4,4.06,2.87,5.56,6.86.65,13.82-.11,20.7.37,1.33,1.55,1.86,3.66,3.09,5.31a73.35,73.35,0,0,0,17.61-48.15,71.52,71.52,0,0,0-19.8-49.3c-13.34-13.9-32.62-22.25-52-21.48A129.47,129.47,0,0,0,236.47,109.91Zm-14.9,99.88c9.84.15,19.68,0,29.52,0,8.72-.09,17.46.2,26.17-.15-1.92-.93-4.08-.56-6.13-.61q-23.88.06-47.77,0A1.84,1.84,0,0,0,221.57,209.79Zm-1.29,6.39,0,2.89,4.11,0c0-1,0-2,0-3Zm7.56,0c0,.8,0,1.61,0,2.42l2.4,0c0-.81,0-1.62,0-2.42Zm4.91,0c0,.79,0,1.59.05,2.39.79,0,1.57,0,2.36,0,0-.81,0-1.6,0-2.39Zm5.49,0c0,.81,0,1.62,0,2.44l2.38,0c0-.79,0-1.59,0-2.37C239.81,216.15,239,216.13,238.24,216.13Zm5.4,0c0,.8,0,1.6,0,2.39a65.86,65.86,0,0,1,11.66.67l0-3C251.38,216.1,247.51,216.21,243.64,216.13Zm14.13,0c0,.81,0,1.62,0,2.43l2.37,0c0-.8,0-1.6,0-2.39Zm5.4,0q0,1.16,0,2.34l2.37.7q0-1.5,0-3Zm5.43,0c0,.77,0,1.55-.05,2.33l2.46,0c0-.8,0-1.61,0-2.41Zm4.92,0c0,.77,0,1.55,0,2.32l4.6.05,0-2.43Q275.85,216.15,273.52,216.19Zm-50.43,7.39c-1,3.07-.31,6.29.49,9.32a27.66,27.66,0,0,1,1.74-7.59C225.4,224,224.16,223.61,223.09,223.58Zm51.71.21a34.14,34.14,0,0,0-2.23,2.71c3.21,1.44-.16,6,2.65,7.55a23,23,0,0,1,1.58-8.12C276.44,225.07,275.85,223.81,274.8,223.79ZM245.63,229c-1.17,1.3-.87,3.14-1,4.74q3.9,0,7.82,0c.23-1.35.79-2.81.1-4.12C251.43,227,247.33,226.79,245.63,229ZM230,230.19c-.63,1.07-.41,2.39-.54,3.58q3.45,0,6.89,0c0-1.53.08-3.31-1.39-4.25C233.55,227.89,231.11,228.81,230,230.19Zm33.57-.68c-1.09,1.14-.83,2.82-1,4.26l6.31,0c-.15-1.41.35-3.2-.92-4.23C266.9,228.15,264.7,228.41,263.54,229.51Zm14.83,1.82c0,.81,0,1.62,0,2.44l4.69,0a6,6,0,0,0-1.25-3.45C280.56,230,279.43,230.74,278.37,231.33Zm-62-.44c-.79.71-.43,1.93-.63,2.87l4.87,0-.63-2.9A27.12,27.12,0,0,0,216.4,230.89Zm-13.11,5.35.67.72c29.65.1,59.31,0,89,.06a4.92,4.92,0,0,0,2.78-.66c-.92-.06-1.85-.1-2.78-.11Q248.11,236.3,203.29,236.24Z"/><path class="cls-3" d="M276.64,107.83c1.49-.87,3.07-2.08,4.92-1.75a5,5,0,0,1,2.89,1.69,7.88,7.88,0,0,1-6.17,1.84C277.38,109.47,277.13,108.45,276.64,107.83Z"/><path class="cls-3" d="M191.43,109.08l1-.15.16.56c-2.69,2.44-5.26,5-7.92,7.51-.59.85-2-.6-1.14-1.2C186.08,113.5,188.63,111.12,191.43,109.08Z"/><path class="cls-3" d="M292.21,110.59c-.29-.86.53-1.48,1.22-1.74,1.91.48,2.65,2.49,3.47,4.06C294.94,113.68,293.09,112.26,292.21,110.59Z"/><path class="cls-3" d="M311.14,108.77c2.06-.24,3.46,1.4,4.8,2.68a44.36,44.36,0,0,1,4.42,4.57c-.87,1.4-2-.14-2.83-.72C315.34,113.19,312.9,111.28,311.14,108.77Z"/><path class="cls-3" d="M206.74,113.43A7.79,7.79,0,0,1,211,109c.31.55.59,1.11.85,1.69A4.31,4.31,0,0,1,206.74,113.43Z"/><path class="cls-3" d="M194.31,111.43a3.8,3.8,0,0,1,2.56-1,20.2,20.2,0,0,1-3.93,4c-1.87,1.54-3.4,3.45-5.25,5-.64.86-2.06-.57-1.14-1.12C189.14,116,191.64,113.62,194.31,111.43Z"/><path class="cls-3" d="M211.8,112.27c1.8-1.54,5.07-3,6.84-.65-.57,1.63-2.51,2-4,2.36S212.52,113.13,211.8,112.27Z"/><path class="cls-3" d="M285.16,111.64c1.21-2.21,5.32-1.58,6.36.59-.41,1-1.51,1.24-2.35,1.73C287.84,113.21,286.15,112.86,285.16,111.64Z"/><path class="cls-3" d="M307.36,110.46a5.85,5.85,0,0,1,4,1.88c2.08,2,4.42,3.77,6.45,5.85l-1.51,1.28C313.24,116.54,309.94,113.81,307.36,110.46Z"/><path class="cls-3" d="M123,112.36a3.55,3.55,0,1,1,0,6.3A3.57,3.57,0,0,1,123,112.36Z"/><path class="cls-3" d="M374,112.28a3.47,3.47,0,0,1,4.82,3.16c.25,2.66-3.13,4.52-5.31,3.06C371.09,117.23,371.43,113.17,374,112.28Z"/><path class="cls-3" d="M300,113.83c2-.18,4.37-.72,5.89,1l-1.76,1.55c-.1.36-.31,1.08-.42,1.44a8,8,0,0,1-2.87-1.53A13.28,13.28,0,0,1,300,113.83Z"/><path class="cls-3" d="M198.34,114.35a34.38,34.38,0,0,1,5.74-.12c.09,2.07-1.92,3-3.54,3.65A14.14,14.14,0,0,1,198.34,114.35Z"/><path class="cls-3" d="M174.67,115.08c.8-1.1,1.61.27,1.84,1a10,10,0,0,1-1.85,6.07c-.55.89-1.7.91-2.61,1.18A26,26,0,0,1,174.67,115.08Z"/><path class="cls-3" d="M327,116c.31-.8,1.18-1.1,1.83-1.57.79,2.09,1.76,4.13,2.38,6.29.26.81-.39,1.51-.62,2.23l-2.25-1A51.74,51.74,0,0,1,327,116Z"/><path class="cls-3" d="M203.28,117.68c1.44-1.74,3.93-3.2,6.15-1.91,1,1.36-1.05,2.66-2.11,3.28C205.8,120,204.43,118.49,203.28,117.68Z"/><path class="cls-3" d="M294.25,116.46c-.31-.85.71-1.3,1.41-1.22a12.46,12.46,0,0,1,4.83,1.79c-.78.8-1.56,2.37-2.9,2S294.36,118.12,294.25,116.46Z"/><path class="cls-3" d="M307.38,115.91c2.12.55,4.52,1.39,5.37,3.63.52,1.5,1.26,3.74-.25,4.9a3.62,3.62,0,0,1-2.09-1.57C309,120.79,307.11,118.65,307.38,115.91Z"/><path class="cls-3" d="M192.85,117.55a12.61,12.61,0,0,1,3.94-1.21c-.83,3.1-2.4,6.41-5.26,8.09-.81.65-1.71-.57-1.39-1.36C190.53,121.1,190.82,118.54,192.85,117.55Z"/><path class="cls-3" d="M301.14,120.45c.56-1.34,2.14-.39,3.15-.19,1,.48,2.57.49,2.88,1.73-.44.33-.9.66-1.35,1-.43.54-.48,1.63-1.34,1.63A13.59,13.59,0,0,1,301.14,120.45Z"/><path class="cls-3" d="M317.78,121.28a7.19,7.19,0,0,1,6.55-1.45c1.15.76,2.29,2,2,3.46A15.7,15.7,0,0,1,317.78,121.28Z"/><path class="cls-3" d="M176.7,122.69a11.29,11.29,0,0,1,2.65-2.47c2.17-.47,4.35.33,6.28,1.28C183.1,123.11,179.39,125,176.7,122.69Z"/><path class="cls-3" d="M196.19,122a13.77,13.77,0,0,1,6.13-1.84A11.73,11.73,0,0,1,199,125C198.07,124,197.08,123.07,196.19,122Z"/><path class="cls-3" d="M113.74,121.06a3.53,3.53,0,0,1,4.94,3.61c0,3.1-4.59,4.36-6.32,1.83C110.8,124.76,111.77,122,113.74,121.06Z"/><path class="cls-3" d="M383.33,121.11a3.53,3.53,0,1,1-.55,6.09A3.57,3.57,0,0,1,383.33,121.11Z"/><path class="cls-3" d="M168.05,121.81c2.54,1.94,3.89,6,1.93,8.75-.64.73-1.47,0-2-.49-.64-.66-1.59-1.55-1.12-2.56A19.87,19.87,0,0,0,168.05,121.81Z"/><path class="cls-3" d="M332.81,129.88a7.5,7.5,0,0,1,2.54-8.18,24.94,24.94,0,0,0,1.59,5.35C336.09,128.48,334.81,131.28,332.81,129.88Z"/><path class="cls-3" d="M173.88,126.16a29.66,29.66,0,0,1,6.75-1.46c.38,3.93-4.75,5.42-7.73,4.23C172.12,128.08,172.84,126.5,173.88,126.16Z"/><path class="cls-3" d="M191.59,126c1.63-.94,3.57-1.06,5.39-1.34a7.58,7.58,0,0,1-3.65,5.32c-1,.62-3.17.63-3.24-1A3,3,0,0,1,191.59,126Z"/><path class="cls-3" d="M306.79,124.58c2.19.06,5.32-.1,6.3,2.35.76,1.33-.18,2.64-1,3.64C309.35,129.71,307,127.55,306.79,124.58Z"/><path class="cls-3" d="M322.66,124.61a35.32,35.32,0,0,1,7.06,1.33c1.12.31,1.2,1.6,1.45,2.52-1.86.41-3.94,1.23-5.73.16C323.81,127.9,323.08,126.21,322.66,124.61Z"/><path class="cls-3" d="M316.34,125.09c1.71,1.42,3.57,2.83,4.61,4.84.33,1.45-.2,3.41-2,3.49a4.56,4.56,0,0,1-3.41-3.78A16,16,0,0,1,316.34,125.09Z"/><path class="cls-3" d="M182.86,129.88a39.32,39.32,0,0,1,3.73-4.44c3,2.51.72,7.33-2.48,8.38C182.35,133.56,182,131.17,182.86,129.88Z"/><path class="cls-3" d="M102.88,127.61c2.67-.84,5.09,2.21,4.17,4.7-.89,2.68-5.23,3.08-6.42.43A3.51,3.51,0,0,1,102.88,127.61Z"/><path class="cls-3" d="M395.23,127.65a3.63,3.63,0,0,1,4.59,3.5c-.08,2.53-3.2,4.41-5.39,2.93C391.87,132.71,392.45,128.39,395.23,127.65Z"/><path class="cls-3" d="M336.39,133.42a23.72,23.72,0,0,1,3.19-5.68,14.63,14.63,0,0,1,1.89,6c-1.23,1.25-1.53,3.06-2.5,4.47-.73.77-1.08-.73-1.46-1.14A10.4,10.4,0,0,1,336.39,133.42Z"/><path class="cls-3" d="M161.87,134.43c.19-2,.28-4.87,2.23-6A39,39,0,0,1,167,135c-.24,1.72-1.83,2.81-3.25,3.57A9.45,9.45,0,0,0,161.87,134.43Z"/><path class="cls-3" d="M325.28,130.58a10.48,10.48,0,0,1,8.34,2.37,2.22,2.22,0,0,1,.35,1.81,12,12,0,0,1-5.05-.43A15.26,15.26,0,0,1,325.28,130.58Z"/><path class="cls-3" d="M92,131.41a3.51,3.51,0,1,1-2.1,6.1C87.69,135.64,89.07,131.47,92,131.41Z"/><path class="cls-3" d="M169.08,135.28c.36-2.85,3.56-3.78,6-4.22.82.07,2.13-.47,2.55.52a12.19,12.19,0,0,1-3.44,3.2A14,14,0,0,1,169.08,135.28Z"/><path class="cls-3" d="M407.22,131.45a3.49,3.49,0,0,1,3.73,4.69,3.51,3.51,0,1,1-3.73-4.69Z"/><path class="cls-3" d="M312.13,133.84c.71-.63,1.43-1.63,2.51-1,1.73.57,3.66,1.48,4.41,3.26a1.62,1.62,0,0,1-2.22,1.74C314.79,137.19,313.47,135.39,312.13,133.84Z"/><path class="cls-3" d="M183.94,138.54c-.4-3.42,3.18-5.8,6.28-5.29,1.31.37.13,1.91-.33,2.56A12.14,12.14,0,0,1,183.94,138.54Z"/><path class="cls-3" d="M321.93,134.19c.91-.7,1.79.24,2.57.68,1.9,1.39,4.2,3.1,4,5.76-1.41-.18-2.87-.76-4.28-.33-.11,1.32.26,2.68-.22,3.95a31.18,31.18,0,0,0-5-.52c-.44-1.36-1.23-2.72-1-4.2a11.77,11.77,0,0,1,4.13.3C321.81,138,321.19,136,321.93,134.19Z"/><path class="cls-3" d="M174.22,141.16a10.09,10.09,0,0,1,6.87-7.15,14.67,14.67,0,0,1,1,2.12c-.35,1.4-.82,2.78-1.07,4.22,1.39-.18,2.84-.84,4.22-.39-.07,1.41,0,3.19-1.06,4.24a29.14,29.14,0,0,0-5.11.35c-1.27-1,.13-2.41-.08-3.66C177.43,140.37,175.8,141.07,174.22,141.16Z"/><path class="cls-3" d="M329.3,137.15c1.61-.17,3.32-.66,4.89-.05a8.36,8.36,0,0,1,3.35,3.37c-.4,1.45-2.15,1.35-3.34,1.3A5.48,5.48,0,0,1,329.3,137.15Z"/><path class="cls-3" d="M340.76,143.17a16.19,16.19,0,0,1,2.11-7c1.22,1.11,2.4,2.5,2.37,4.26a7.55,7.55,0,0,1-1.89,4.39C342.2,145.55,341,144.26,340.76,143.17Z"/><path class="cls-3" d="M158,142.74a5,5,0,0,1,1.85-5.77c.94-.24,1.26.82,1.55,1.47,1,2.4,1.38,5.32-.42,7.45C159.67,145.15,158.35,144.25,158,142.74Z"/><path class="cls-3" d="M169.18,137.29a9.22,9.22,0,0,1,4.18,0,2,2,0,0,1-.36,2.31,7.4,7.4,0,0,1-6.17,3.08c-.48-.3-1-.61-1.4-1C166.66,140.22,167.64,138.48,169.18,137.29Z"/><path class="cls-3" d="M326.65,143.12c1.41-.13,2.55,1,3.49,2s2,2.56,1.3,4a2.74,2.74,0,0,1-4.1-1.15C326.62,146.48,325.11,144.56,326.65,143.12Z"/><path class="cls-3" d="M175.14,143.77c1-.74,2.05.37,1.81,1.4-.51,1.89-1.17,4.31-3.36,4.82-.9.45-2.33-.12-2.2-1.24A6.23,6.23,0,0,1,175.14,143.77Z"/><path class="cls-3" d="M332.87,143.89c2.25.14,4.8,0,6.57,1.69a5.29,5.29,0,0,1,2.09,4.39A9.53,9.53,0,0,1,332.87,143.89Z"/><path class="cls-3" d="M163.07,146.48a10.66,10.66,0,0,1,7.16-2.27,11.17,11.17,0,0,1-6.64,6c-.67.17-2.44.67-2.2-.6A4.49,4.49,0,0,1,163.07,146.48Z"/><path class="cls-3" d="M345,151.74c-2-2.55-.17-6.27,2.37-7.66.43,1.58.88,3.29.31,4.9A11.7,11.7,0,0,1,345,151.74Z"/><path class="cls-3" d="M155.51,144.7c2.45.89,2.67,3.87,3,6.08.4,1.38-1.58,1.73-2.27.73C153.86,150,155.3,147,155.51,144.7Z"/><path class="cls-3" d="M321.74,147.3c2,0,4.2.95,4.87,3-.47,1.74-2.77,3-4.19,1.49A28.93,28.93,0,0,1,321.74,147.3Z"/><path class="cls-3" d="M175.91,150.8c1-1.83,2.78-3.38,5-3a13.86,13.86,0,0,1-1.38,5.48C178.07,153.13,175.94,152.6,175.91,150.8Z"/><path class="cls-3" d="M349.07,151.53l.33-.23a9.45,9.45,0,0,1,1.13,2.77c2.61,10.78,4.2,22,2.65,33.07l-.51.19-.58-.69c-.41-3.61.05-7.26-.15-10.88a107.66,107.66,0,0,0-3.06-20.68C348.62,153.94,348.07,152.5,349.07,151.53Z"/><path class="cls-3" d="M150.67,160.67a37.11,37.11,0,0,1,2.59-8.84c1.57,1.18.69,3.09.35,4.63a109,109,0,0,0-3.34,19.31c-.28,3.63,0,7.27-.15,10.9,0,.93-.9,1.47-1.36,2.17a10,10,0,0,1-.54-2.69A108,108,0,0,1,150.67,160.67Z"/><path class="cls-3" d="M331.66,153.13c1-.38,1.58.66,2.21,1.24a9.56,9.56,0,0,1,2.25,3.87l-1.52.51c-.48.44-1,.88-1.46,1.28C331.12,158.49,330.87,155.42,331.66,153.13Z"/><path class="cls-3" d="M341.3,152.87c1,.33,1.17,1.5,1.48,2.39A91.31,91.31,0,0,1,346,175.71a15.15,15.15,0,0,1-.18,6c-1.95-1.15-1.31-3.5-1.47-5.37-.48-6.37-.88-12.82-2.71-19C341.33,155.9,340.39,154.26,341.3,152.87Z"/><path class="cls-3" d="M166.62,158.72c.08-2.58,2.58-3.93,4.15-5.63,2.46,1.95.57,5.25-1,7.17A32.41,32.41,0,0,0,166.62,158.72Z"/><path class="cls-3" d="M326.59,153.37A10.71,10.71,0,0,1,330,156.7a19.26,19.26,0,0,1,1.66,5.57c-1.36-.91-2.87-1.71-4.55-1.31A17.23,17.23,0,0,1,326.59,153.37Z"/><path class="cls-3" d="M160.4,154l1.7,0a80.26,80.26,0,0,0-4.33,25.69,3,3,0,0,1-1.84,2.95A88.24,88.24,0,0,1,160.4,154Z"/><path class="cls-3" d="M337,154.51l1.54-.68c1.93,8,3.81,16.2,3.4,24.48-1.68-.38-1.78-2.19-1.81-3.58A64.94,64.94,0,0,0,337,154.51Z"/><path class="cls-3" d="M171,162.87c0-3.48,1.84-7.31,5.2-8.66a22.53,22.53,0,0,1-.79,7.36c-.69.28-1.42-.13-2.12-.19Z"/><path class="cls-3" d="M345.37,156.77c-.37-1,.48-1.73,1.13-2.36a88.65,88.65,0,0,1,3,29.62c-1.74.39-1.71-2.22-1.79-3.38A100.9,100.9,0,0,0,345.37,156.77Z"/><path class="cls-3" d="M163.29,158.69c.53-1.42.56-3.52,2.4-3.84-.93,5.52-2.75,10.86-3.35,16.45-.34,2.36-.28,4.81-1,7.11-.42.3-.86.58-1.31.85A89.16,89.16,0,0,1,163.29,158.69Z"/><path class="cls-3" d="M155.15,159.79c.47-1.54.63-3.33,1.94-4.43.23,3.91-1.54,7.57-1.84,11.45-1.08,5.63-.55,11.41-1.47,17.06a8.46,8.46,0,0,1-1.49,1.24A84.56,84.56,0,0,1,155.15,159.79Z"/><path class="cls-3" d="M335.43,161.65c.83.26.91,1.24,1.28,1.92.82,1.82,1.72,3.68,1.41,5.73-1.35.2-3.58.67-4-1.16A5.82,5.82,0,0,1,335.43,161.65Z"/><path class="cls-3" d="M167,162.14c2.82,1.77,2.54,7.72-1.28,8.31-.92.35-1.15-.89-1.41-1.48C163.44,166.38,165.63,164.13,167,162.14Z"/><path class="cls-3" d="M64.73,166.62c1.67-1.25,3.66-3.43,5.92-2.19,5,2.24,9.5,5.56,13.9,8.81,2.29,1.62,3.43,4.25,5.11,6.41,1.4,1.61,1.3,3.84,1.66,5.83,4.14,29.69,10.74,59.12,21.1,87.28,1.65,5,3.82,9.85,5.89,14.71,8.76,20.08,19.81,39.37,34.43,55.79,2.25,2.61,4.57,5.14,6.89,7.69,6.14,5.44,11.71,11.47,17.66,17.12,3,2.4,5.56,5.3,8.54,7.72a347.62,347.62,0,0,0,37.71,30.79c7.63,5,15.44,10.11,24.27,12.75,2.59.95,5.24-.26,7.68-1.1,6.66-2.48,12.74-6.25,18.64-10.16a261.63,261.63,0,0,0,23-17.26c14.91-12.36,29-25.67,42.74-39.33,13.64-13.06,24.5-28.77,33.46-45.32a294,294,0,0,0,22.21-56c6.75-22.85,11.22-46.3,14.47-69.89a32.58,32.58,0,0,1,4.27-6.48,91.51,91.51,0,0,1,12.5-8.2A14.22,14.22,0,0,1,430.9,164a9.4,9.4,0,0,1,4.08,2.28A49.28,49.28,0,0,1,448.91,186a42.54,42.54,0,0,1,3,14.32q.09,11.19,0,22.4c3.69.09,7.38,0,11.08.06a181.72,181.72,0,0,1,1.64,22c.4,9.61-.28,19.36-3.13,28.59a28.31,28.31,0,0,1-4.9,9.05c-4.68,5-9.66,9.64-14.35,14.6,5.94-1.2,12.27-2.93,18.23-.87,2.68,1,2.74,4.32,2.72,6.75-.37,7-3.08,13.65-5.76,20.07a123.53,123.53,0,0,1-27.75,38.53,237.16,237.16,0,0,1-20.54,18.54,154.26,154.26,0,0,1-21.48,15.14c10.67.05,21.61.42,31.72,4.16,4.31,2,8.31,4.58,12.48,6.83a42.85,42.85,0,0,1-9.27,19.4c-4.25,5.57-9.9,9.85-15.64,13.76-11.12,6.78-23.68,10.73-36.37,13.34-25.73,5.33-51.44,10.73-77.17,16-11.76,2.1-23.44,4.71-35.32,6a23.1,23.1,0,0,1-4.24.12c-3.48-.28-7,.48-10.45.1-8.83-.37-17.4-2.6-26.07-4.09-23.57-4.65-47.08-9.62-70.6-14.49-16.21-3.5-33-5.91-47.86-13.7a67.07,67.07,0,0,1-14.66-9.81c-8-6.88-14.3-16.14-16.2-26.62,4.5-2.35,8.73-5.26,13.42-7.23,9.84-3.41,20.4-3.7,30.7-3.77-9.3-5.25-17.61-12-25.86-18.73-5.08-4.53-10.22-9-15-13.85a129.12,129.12,0,0,1-20.86-24.89c-5.77-9.06-10.52-18.9-13-29.38-.7-3.29-1.16-6.82-.13-10.08.74-1.95,3-2.53,4.81-2.8,5.41-.71,10.9.38,16.07,1.92-4.83-4.74-9.53-9.61-14.36-14.36-3.62-4-5.6-9.21-6.66-14.44-2.55-10.44-2-21.28-1.59-31.93.21-4.64.81-9.24,1.36-13.85,3.69,0,7.38,0,11.07,0,0-8.07-.16-16.14.09-24.19A50.48,50.48,0,0,1,64.73,166.62Zm377.2,130.49"/><path class="cls-3" d="M329.17,170.09c2.78,1.59,4.8,4.11,7.25,6.1,5.54,4.82,10.88,9.86,16.45,14.65,1.71,1.27.31,3.62.27,5.32-2.75-1.58-4.58-4.26-7.09-6.15-4.76-4.46-9.3-9.16-14-13.72A6.8,6.8,0,0,1,329.17,170.09Z"/><path class="cls-3" d="M148.71,192.4c8.22-7,16-14.54,24.15-21.67a11.16,11.16,0,0,1,0,3.91c-1.37,1.54-3,2.85-4.47,4.26-4.83,4-8.87,8.91-13.72,12.93-2.13,1.71-3.68,4.14-6.16,5.41C148.43,195.69,147.23,193.61,148.71,192.4Z"/><path class="cls-3" d="M329.82,178.1c2.26,1,3.66,3.15,5.46,4.76,5.52,4.79,10.5,10.14,15.75,15.22,1.43,1.18.15,3.06,0,4.52-3.67-3.08-6.65-6.89-10.4-9.86-1.88-1.53-3.43-3.41-5.29-5-1.94-1.72-4.12-3.29-5.56-5.48A20.42,20.42,0,0,1,329.82,178.1Z"/><path class="cls-3" d="M164.09,186c2.81-2.27,5-5.32,8.21-7.06,0,1.49.39,3.16-.46,4.51a25.69,25.69,0,0,1-3.1,2.89c-3,2.82-5.74,5.89-8.9,8.52s-5.81,5.85-8.92,8.54c-.81.12-.9-1-1.16-1.49-.22-.78-.68-1.76.05-2.43a74.85,74.85,0,0,1,6.05-5.9C158.79,191.26,161.19,188.37,164.09,186Z"/><path class="cls-3" d="M330.5,186.19c1.37.09,1.73,1.63,1.95,2.74.47,2.22-.52,4.36-1.62,6.23A6.93,6.93,0,0,1,330.5,186.19Z"/><path class="cls-3" d="M171.64,196.16c-2.57-2.11-3.71-6.77-1-9.2,1.23-.2,1.47,1.48,1.87,2.32C173.49,191.59,172.49,194,171.64,196.16Z"/><path class="cls-3" d="M332,200.27a8.73,8.73,0,0,1,5.51-8.31,8.07,8.07,0,0,1-4.18,9.09C332.63,201.49,332.25,200.78,332,200.27Z"/><path class="cls-3" d="M164.59,192.46c3.47,1.68,5.7,5.81,4.51,9.6C165.11,201.21,162.93,196,164.59,192.46Z"/><path class="cls-3" d="M339.77,196c.47-.9,1.49.13,2,.44,1.85,1.57,2.07,4.26,1.74,6.51-.5,1-2,1.53-2.83.57A8.26,8.26,0,0,1,339.77,196Z"/><path class="cls-3" d="M158,199.7c.09-1.94,2.18-2.55,3.64-3.22.87,2.09.29,4.35-.27,6.44-.22,1.18-1.4,1.74-2.21,2.49C157.43,204.05,157.9,201.61,158,199.7Z"/><path class="cls-3" d="M327.24,198.05c2.35-.06,3.84,3.71,2.26,5.62-.55.56-1.12,1.84-2,1.23C326.17,203,325.47,199.83,327.24,198.05Z"/><path class="cls-3" d="M171.65,201.89c.35-1.67,1.89-2.59,3.39-3.07a10.2,10.2,0,0,1-1.21,7.6C172.55,205.3,171,203.74,171.65,201.89Z"/><path class="cls-3" d="M329.11,210.29c-.07-3.19,2.51-6.53,5.84-6.56-.21,1.43-.18,3.05-1.14,4.24A14.64,14.64,0,0,1,329.11,210.29Z"/><path class="cls-3" d="M338.31,214.13c-2.28-3-2.64-7.48-.24-10.52a57.09,57.09,0,0,1,2.39,7.66C340.75,212.63,340.05,214.71,338.31,214.13Z"/><path class="cls-3" d="M166.55,204.73a6,6,0,0,1,3.19,1.29c1.51,1.28,1.8,3.36,2.13,5.2-1.6-.54-3.39-1-4.56-2.26C166.54,207.7,166.74,206.12,166.55,204.73Z"/><path class="cls-3" d="M161.29,210c.46-1.79.63-3.82,2.11-5.12a23.28,23.28,0,0,1,1.41,5.15A12.74,12.74,0,0,1,162,216C160.07,214.5,160.89,212,161.29,210Z"/><path class="cls-3" d="M343,208c1.39-3.31,5.64-3.4,8.65-2.8-1.47,2-3.26,4.4-6,4.35C344.63,209.61,342.36,209.5,343,208Z"/><path class="cls-3" d="M150.37,206.16c2.92-1,7.17.06,8,3.35.44,1.14-1.19,1-1.85,1.1C153.63,211,151.54,208.49,150.37,206.16Z"/><path class="cls-3" d="M322.22,215.06a7.36,7.36,0,0,1,2.26-7.75c1.34,1.76,2.39,4.2,1.47,6.38A3.21,3.21,0,0,1,322.22,215.06Z"/><path class="cls-3" d="M174.94,213.28a42.46,42.46,0,0,1,1.62-4.81c2.08.63,2.5,3,2.89,4.8.16,1.21-.24,3.06-1.7,3.23A3.25,3.25,0,0,1,174.94,213.28Z"/><path class="cls-3" d="M342.27,214.43a18.56,18.56,0,0,1,5.12-2.18,35.27,35.27,0,0,1-2.1,4.7C343.94,216.71,341.58,216.38,342.27,214.43Z"/><path class="cls-3" d="M153.64,213.31c2.13.57,4.4,1,6.06,2.61-.95.71-1.75,2.12-3.06,2.07C155,217,154.41,215,153.64,213.31Z"/><path class="cls-3" d="M325.32,217.41a30.14,30.14,0,0,1,5.22-3.72c.32,2.76-1.33,5.13-2.71,7.35-.46,1-1.86.53-2.16-.33S324.35,218.33,325.32,217.41Z"/><path class="cls-3" d="M170.43,215.17a12.5,12.5,0,0,1,5.78,3.56,3.57,3.57,0,0,1-1.09,3.27,1.08,1.08,0,0,1-1.91.18C171.9,220,170.49,217.76,170.43,215.17Z"/><path class="cls-3" d="M327.56,225.1c1.61-3,3.07-6,4.95-8.88l1.41,1a85.49,85.49,0,0,1-5.79,9.69C327.07,226.94,327.12,225.73,327.56,225.1Z"/><path class="cls-3" d="M168.07,219.69c-.37-.65-.66-2.2.45-2.22,1.56,3.17,3.53,6.14,4.88,9.41.53.79-.65,1.31-1,1.93C171.08,225.72,169.54,222.72,168.07,219.69Z"/><path class="cls-3" d="M318.67,223.31c-1.09-2.13,1-3.94,2.31-5.37,3.57,8.16,6.61,16.55,9.81,24.87.41,1.29-1.28,1.91-2,2.69C325.31,238.16,322,230.72,318.67,223.31Z"/><path class="cls-3" d="M335.07,219.55c.39-.63,1.24-2.07,1.79-.77a25.77,25.77,0,0,1-2.35,4.51c-1.56,2.69-2.88,5.53-4.6,8.12-.09-1.06-.4-2.21.21-3.18C331.73,225.32,333.49,222.49,335.07,219.55Z"/><path class="cls-3" d="M164,220.23l1.2-1c1.83,3.27,3.76,6.49,5.59,9.76a6.65,6.65,0,0,1,.64,3.71,2.71,2.71,0,0,1-1.84-1.41C167.63,227.61,165.82,223.9,164,220.23Z"/><path class="cls-3" d="M180.08,219.21a17.18,17.18,0,0,1,2.67,3.34,7.92,7.92,0,0,1-1.13,3.3c-1.39,2.65-2.7,5.33-3.88,8.08-2,4.26-4.19,8.45-6.15,12.75-1.08-1.24-3-2.75-2-4.58Q174.78,230.64,180.08,219.21Z"/><path class="cls-3" d="M336.93,223.16a10,10,0,0,1,2.15-3.19c1.47.67.18,2.35-.15,3.37-2.07,3.89-4.1,7.93-7,11.31a5.32,5.32,0,0,1,.32-3.18C333.73,228.65,335.46,226,336.93,223.16Z"/><path class="cls-3" d="M161.87,224.2c-.36-.86-1.28-2.7.13-3,1.95,2.78,3,6.07,4.8,8.92a28.56,28.56,0,0,1,2.47,4.06c.43.84-.41,1.56-.73,2.27A97.23,97.23,0,0,1,161.87,224.2Z"/><path class="cls-3" d="M340.6,224.64c.67-1.19,1-2.73,2.3-3.45,1.49.25.67,1.75.3,2.63A82.89,82.89,0,0,1,333.82,239c-.21-.34-.65-1-.87-1.35C335.54,233.36,338.59,229.28,340.6,224.64Z"/><path class="cls-3" d="M157.06,222.51c.77-.27,1.76-.25,2.05.68,2.14,4,4,8.21,6.27,12.18.87,1.6,2.39,3.3,1.42,5.23-2.07-2.1-3.39-4.76-4.84-7.28C160.1,229.84,158,226.38,157.06,222.51Z"/><path class="cls-3" d="M314.83,227.78c-1.11-2,.19-4.15,1.78-5.38,2.94,6.3,5.56,12.74,8.45,19,.67,1.6,1.63,3.17,1.77,4.94a6.14,6.14,0,0,1-2.18,3.42C321.48,242.42,318.11,235.12,314.83,227.78Z"/><path class="cls-3" d="M184.3,223.37c1,1.22,2.87,2.67,2,4.41-2.62,5.45-4.92,11.05-7.41,16.55a37,37,0,0,1-3.32,6.74,10.74,10.74,0,0,1-2.12-3,8.29,8.29,0,0,1,.74-2.34C177.63,238.28,180.83,230.76,184.3,223.37Z"/><path class="cls-3" d="M310.16,233.4c.33-2.11,1.66-4.26,3.94-4.55.13,1.88.85,4.43-1.19,5.57A1.72,1.72,0,0,1,310.16,233.4Z"/><path class="cls-3" d="M186.34,233.92a12.27,12.27,0,0,1,1-4.32,6.69,6.69,0,0,1,2.81,6.53A3.62,3.62,0,0,1,186.34,233.92Z"/><path class="cls-3" d="M306.77,232.51c.58-.34,2-.86,2,.33.31,2.21-.31,4.43-.75,6.59l-2.19-1.92-2.88.43A7.9,7.9,0,0,1,306.77,232.51Z"/><path class="cls-3" d="M192.83,240.78c-1.36-2.34-1.81-5.57-.06-7.83,2.28,1.27,4.33,3.24,4.77,5.93l-3.25.11Z"/><path class="cls-3" d="M313.1,236.72c.7-.43,1.46-1.51,2.35-.91,1.33,2-.35,4.44-2,5.64-1.15.92-2.66.22-3.94.12C309.76,239.42,311.62,238.08,313.1,236.72Z"/><path class="cls-3" d="M184.56,238.24c-.11-.88.75-1.36,1.22-1.94,1.94,1.86,4.5,3.45,5.12,6.26-.76.25-1.51.54-2.28.72C186.76,242.18,184.73,240.55,184.56,238.24Z"/><path class="cls-3" d="M299.69,242.62a6.24,6.24,0,0,1,5.94-3.49c-.59,2.09-.57,5-2.78,6.05C301.82,244.29,300.76,243.44,299.69,242.62Z"/><path class="cls-3" d="M295.16,243.25c.69-1.45,1.94-3.25,3.78-3a1,1,0,0,1,.24,1.46,21.86,21.86,0,0,1-3.05,3.94C295.61,245,294.52,244.24,295.16,243.25Z"/><path class="cls-3" d="M194.9,240.74c2.51-.15,4.38,1.73,6,3.4a34.18,34.18,0,0,0-3.78,2.65A13.93,13.93,0,0,1,194.9,240.74Z"/><path class="cls-3" d="M201,241.37c2.82-.32,3.86,2.54,4.39,4.75l-1.6.56A9.75,9.75,0,0,1,201,241.37Z"/><path class="cls-3" d="M247.36,242.51l4,0v2.61a27.18,27.18,0,0,0,4,.25,18.22,18.22,0,0,0,1.78-2.22l4.24,1.77c-.48.88-.95,1.76-1.42,2.64l3,1.84,2.16-2.23c1.09.91,2.18,1.8,3.28,2.7-.34,1.1-2.06,2.66-.3,3.29,0,.22.05.65.07.86,1.13,1.47,2.71.69,4.08.05.81,1.44,1.59,2.89,2.34,4.37a11.84,11.84,0,0,0-2.07,1.8,16.42,16.42,0,0,0,.3,1.95,24.52,24.52,0,0,1-3.34.79c-1-.5-1.39-1.67-2-2.56a27.32,27.32,0,0,0-7-8.27c-5.32-3.6-12.25-3.53-18.24-1.94-4.59,1-8,4.74-10.38,8.58a44.58,44.58,0,0,1-2.66,4.52,5.81,5.81,0,0,1-3.47-.24,10.79,10.79,0,0,0,.61-2.91,17.66,17.66,0,0,0-2.58-1.46,19.43,19.43,0,0,1,2.55-4.3l1.57.46c1.33.66,2-1.07,2.8-1.76l.65-.69-1.89-2.46,3.8-2.87,1.82,2.45c1.11-.65,2.23-1.3,3.36-1.94l-1.46-2.63,3.78-2c.72.9,1.42,1.81,2.12,2.72a24.43,24.43,0,0,0,3.78-1C247,244,247.15,243.23,247.36,242.51Z"/><path class="cls-3" d="M306.14,243.24c1-.56,2.25-.16,3.35-.23-.36,2-2.06,3.28-3.6,4.42-.66.62-1.62.22-2.4.26A8.25,8.25,0,0,1,306.14,243.24Z"/><path class="cls-3" d="M191.05,244.79c.94-.15,1.91-.77,2.87-.46a11.78,11.78,0,0,1,3,4.93C194.25,249.65,191.94,247.13,191.05,244.79Z"/><path class="cls-3" d="M297.74,245.18c.76-.54,1.49.15,2.14.51a16,16,0,0,1-2.18,3.92c-1,.57-2.21.06-3.29.08A4.91,4.91,0,0,1,297.74,245.18Z"/><path class="cls-3" d="M288.57,249.16c.39-1.87,1.42-3.77,3.45-4.21-.09,4.42-1.86,8.53-3.1,12.71l-2.14.79C286.76,255.26,287.78,252.21,288.57,249.16Z"/><path class="cls-3" d="M200.3,246.31c2.47-.44,4.2,1.71,5.53,3.45,0,1.31-1.83,1.31-2.66,2C201.89,250.11,200.53,248.43,200.3,246.31Z"/><path class="cls-3" d="M208.16,246.29c1.31.34,2.85.86,3.13,2.4a87.79,87.79,0,0,1,2.46,11.43,14.29,14.29,0,0,1-2.75-1.34,8.72,8.72,0,0,1-1-3.08C209.49,252.54,208.74,249.43,208.16,246.29Z"/><path class="cls-3" d="M284,249.4a10.39,10.39,0,0,1,2.14-.57,84.67,84.67,0,0,1-2.58,9.39c-.31,1.26-1.63,1.76-2.6,2.42.27-2.56,1.28-4.94,1.87-7.42A22.18,22.18,0,0,1,284,249.4Z"/><path class="cls-3" d="M214.07,250c1.08.27,2.35.7,2.61,1.95.79,3.25,1.8,6.5,2,9.85-.9-.44-2-.78-2.28-1.9A96.63,96.63,0,0,1,214.07,250Z"/><path class="cls-3" d="M291.64,254.82c.07-1.51.08-3.69,1.83-4.25a14.44,14.44,0,0,1,3.39,1.45A6.2,6.2,0,0,1,291.64,254.82Z"/><path class="cls-3" d="M236.48,256.25c3.56-3.1,8.15-5.35,13-5.19a18.26,18.26,0,0,1,15.91,10,7.44,7.44,0,0,1,.61,2.72c-1,.24-1.93.49-2.9.75-1.33-2.41-2.61-5-5-6.58-1.95-1.3-4-2.78-6.5-2.69a36.54,36.54,0,0,0-6.78.24,15.67,15.67,0,0,0-9.35,9.67c-1-.29-2-.59-3-.86C232.25,261.08,234.4,258.42,236.48,256.25Z"/><path class="cls-3" d="M203.38,253.4a9.41,9.41,0,0,1,3.73-1.24c1.62.84,1.2,2.8,1.2,4.28C206.11,256.63,204.6,255,203.38,253.4Z"/><path class="cls-3" d="M247.37,264.38c3-1.33,6.94.95,6.68,4.34a4.67,4.67,0,0,1-5.14,5c-1.59-.33-3.34-1-4.1-2.57A5,5,0,0,1,247.37,264.38Z"/><path class="cls-3" d="M325.88,266.23c1-.08,1.18,1.77.54,2.35A3.91,3.91,0,0,1,325.88,266.23Z"/><path class="cls-3" d="M208.75,284.13c1.57-.88,3-2.44,4.9-2.41,0,1.86-2,2.85-3.35,3.79C209.75,285.08,209.25,284.6,208.75,284.13Z"/><path class="cls-3" d="M280.48,302.47l.27-.06c.55.47.42,2-.45,1.95A5,5,0,0,1,280.48,302.47Z"/><path class="cls-3" d="M228.53,304.37l.09-.06Z"/><path class="cls-3" d="M245.82,304.17l.08,0Z"/><path class="cls-4" d="M248.24,38.09a3.39,3.39,0,0,1,2.81-.23q46.45,17.28,92.89,34.63c2.33,1,4.94,1.53,7.1,2.88a198.38,198.38,0,0,0,7.3,25.73c1.57,4,3.16,8.13,6.44,11,5,5.14,9.91,10.39,15.35,15.07,3.72,3,7.63,5.87,12.23,7.3,3.25,1,6.51,1.95,9.78,2.88-.32,22.36-3,44.63-6.59,66.69-3.88,22.5-9.21,44.83-17.27,66.22S359.69,312.41,345,330.09a186.22,186.22,0,0,1-16.72,17.68,15.62,15.62,0,0,0-4.29-2.86,4.9,4.9,0,0,1-5.18,1.62c0-2.53,0-5.06,0-7.58l-1.94-.08c0,.39-.08,1.18-.12,1.57l-.94-.06c-.08-1.18.42-2.93-1.39-2.68-.14.62-.27,1.23-.39,1.85l-.4-1.61c-1-.56-1.57.82-2.32,1.2l0-2.23c-.68,0-1.36,0-2,0,0,.82,0,1.63,0,2.45l-1,0c-.05-1.2.31-2.86-1.49-2.55-.19,1,.4,2.52-1,2.85,0-1.1-.08-2.18-.09-3.27l-3,0c-.09,3.37,0,6.75,0,10.12.18,1.15-.82,1.83-1.47,2.59-1.24-.94-2.4-2.18-4-2.43a35.59,35.59,0,0,0-9.75-1c-2.34.13-4.18,1.81-6.45,2.14a11.94,11.94,0,0,1-3.43-.11c0-5.46,0-10.91,0-16.37l-3,0c0,.85,0,1.71,0,2.56h-2c0-1.36,0-2.71,0-4.06l-1.93-.06c0,1-.07,2-.1,3h-1.48v-5h-3c0,.72-.06,1.44-.08,2.17-2.29.29-1.26-2.28-1.47-3.65-1,0-2,0-3.05,0,0,1.16,0,2.33,0,3.49H258c0-1.17,0-2.34,0-3.51H255c0,1.17,0,2.34,0,3.51h-3c0-1.17,0-2.33,0-3.49l-3.56,0c0,1.17,0,2.34,0,3.52H246c0-1.16,0-2.33,0-3.48l-2.54-.07c0,1.36,0,2.72,0,4.09h-4c0-1.34,0-2.69,0-4-1.19,0-2.37,0-3.56-.05,0,5.54.12,11.09-.1,16.62-4.15.52-8.32.83-12.48,1.22l-1.61-.78c-3,.69-6,1.44-8.95,2.13-.31,1.64-.64,3.29-.93,4.93l-2,.09c-2.26-1.84-4.47-3.74-6.71-5.6-1.17-1.06-2.78-1.23-4.2-1.77-.44-3.22-.08-6.5-.16-9.74l-3.56,0c0-1,0-2,0-3l-1.43,0c.1,1.19-.12,2.24-1.56,2.23,0-.93,0-1.84-.06-2.74l-1.32-.12c-.08.71-.16,1.42-.23,2.13h-1.4l-.15-2.63-1.84.07c-.09.8-.17,1.59-.26,2.39-1-.62-.78-1.83-.91-2.81-1,0-1.94,0-2.92,0v2.43h-3c0-.83-.07-1.65-.1-2.47l-2,0c0,4,0,8,0,12-2.51-1.42-5-3.52-8-3.46-2.1.87-2.78,3.29-3.57,5.22a29.06,29.06,0,0,1-3.65-3.79,259.46,259.46,0,0,1-43.37-74.49,300.84,300.84,0,0,1-11-39.2c-1.49-6.71-3-13.43-4-20.23-2.08-12.38-3.85-24.82-5-37.33-.81-10.09-1.74-20.19-1.67-30.32,4.38-1.46,8.94-2.43,13.17-4.33,7.58-3.79,13.48-10,19.39-15.95,2.8-3.17,6.3-5.83,8.29-9.64a66.37,66.37,0,0,0,4.47-10.66A181.51,181.51,0,0,0,149,75.23C182.05,62.76,215.18,50.51,248.24,38.09ZM236.88,76.42c-11.59,1.88-23.08,5-33.57,10.36A108.44,108.44,0,0,0,156.93,130,101,101,0,0,0,144,170.38c-.81,6.48-.34,13-.46,19.52A105.57,105.57,0,0,0,171,253.76a16.05,16.05,0,0,0,3.21,3.06c.09.29.28.87.38,1.15-2.1,11-4.45,22-6.07,33.14a24.57,24.57,0,0,1,4.72,1.12,16.38,16.38,0,0,1,1.26,3.43c1.81.32,3.64.59,5.47.89.73.16,1.63.19,2.05.93a15.66,15.66,0,0,1-.29,3.27c3.4.42,6.8.7,10.2,1.13.24,1.13.47,2.28.7,3.42,4.27.09,8.53.22,12.8.36a11.44,11.44,0,0,0,3.18-.38c0,.11,0,.34.06.45.36-2.38.36-4.8.72-7.18.78-.45,1.59-.83,2.4-1.21,0,1.43.05,2.85.14,4.29,2.07.31,4.31.09,6.25,1a18.43,18.43,0,0,1,.59,2.49c2.43.12,4.87.15,7.3.1a4.14,4.14,0,0,0,2.46-.87l.09-.06c1-.58,2.17-1.34,3.43-1.1s1.88,2,3.29,2c3,.09,6.07,0,9.11,0l1.37-1,.08,0a15.29,15.29,0,0,1,7.86.1,3.21,3.21,0,0,0,2.71.11,71.65,71.65,0,0,0,7.16.83c1.68.33,2-2.44,3.74-1.91,1.74-.15,3.16.87,4.39,2,2.86,0,5.72.08,8.57-.08l0-.78c.87.06,1-1.48.45-1.95a48.82,48.82,0,0,1,6.14-.77,10.94,10.94,0,0,0,.25-4.26,21.42,21.42,0,0,1,2.75,1.57c.6,2.21.46,4.55.78,6.81,5.36,0,10.7,0,16.06,0l.76-3.37a49.39,49.39,0,0,1,9.85-1.27c0-1.4,0-2.79.07-4.19,2.22-.65,4.51-.95,6.78-1.39,1.33-.44,1.14-2.17,1.53-3.26,1.65-.39,3.29-.8,4.94-1.18.47-1.92-.24-3.85-.59-5.73-1.2-5.41-2.05-10.9-3.43-16.27l-.22-.53c.64-.58.49-2.43-.54-2.35.08-2.72-.83-5.33-1.51-7.93a5.18,5.18,0,0,1,1.74-2.84l.71-.12c1.91-2.44,4.42-4.32,6.32-6.76a104.76,104.76,0,0,0,24.38-52.07c1.13-8.11,2.33-16.38,1.07-24.54a105,105,0,0,0-5.73-27.88,102.36,102.36,0,0,0-30.11-43.72c-19.36-16.32-44.6-25.91-70-25.26C247.4,74.8,242.18,76.07,236.88,76.42Z"/><path class="cls-5" d="M236.47,109.91a129.47,129.47,0,0,1,16.23-1.07c19.34-.77,38.62,7.58,52,21.48a71.52,71.52,0,0,1,19.8,49.3,73.35,73.35,0,0,1-17.61,48.15c-1.23-1.65-1.76-3.76-3.09-5.31-6.88-.48-13.84.28-20.7-.37-1.47-1.5-2.93-3.35-2.87-5.56-.32-1.45,1.36-1.72,2.21-2.45,1.08-.57,1.41-1.81,1.9-2.83-1.58-.34-4.42.8-4.93-1.31.19-1.47,1.48-2.46,2.29-3.63l-2.89-.08c-.81-2.86-1-5.85-2.07-8.65a14.22,14.22,0,0,0-3.1,2.47,24.34,24.34,0,0,1-4.6.21c-12.69,0-25.38,0-38.08,0a47.13,47.13,0,0,1-5.94-.13,18.39,18.39,0,0,1-2.63-2.59c-.91,2.83-1.5,5.75-2.3,8.62l-2.84-.13c.61,1.56,2.54,3.18,1.65,4.91-1.37.51-2.88.06-4.29,0,.14,2,2.08,2.77,3.33,4,1.43,3-.76,7.57-4.31,7.34-5.81.07-11.62,0-17.42,0-2.66-.29-2.6,3-3.67,4.64-3.19-3.63-5.49-7.94-7.68-12.23A73.85,73.85,0,0,1,183.11,153a75.06,75.06,0,0,1,22-28.66A73.81,73.81,0,0,1,236.47,109.91Zm13.65,5c-1.71,4.75-3.26,9.57-5,14.3-5.1.17-10.2,0-15.3.09a10.78,10.78,0,0,0,1.44,1.65c3.44,2.72,7.07,5.22,10.44,8-1.32,5-2.93,9.91-4.19,14.92,3.52-2.63,7.07-5.24,10.6-7.86a3.09,3.09,0,0,1,3.83,0c3.68,2.6,7.23,5.39,11,7.78-1.3-4.73-3.17-9.29-4.5-14-.38-.8.57-1.32,1-1.8,3.74-2.94,7.63-5.68,11.31-8.69-5.17-.11-10.33,0-15.49-.06C253.66,124.48,252.1,119.63,250.12,115Zm-41.25,32.22c-2.62.7-5.3,1.1-7.94,1.73,1.71,1,3.51,1.83,5.28,2.74.71.42,1.73.84,1.53,1.87-.12,2.27-.66,4.5-.88,6.76,2.17-1.56,3.85-3.77,6.19-5.07,2.33,1,4.26,2.8,6.66,3.72-1-2.44-2.15-4.79-3.2-7.19,1.93-2.06,3.77-4.21,5.73-6.24-2.31.26-4.62.6-6.93.95q-2.4-3.47-4.88-6.87C209.62,142,209.92,144.78,208.87,147.17Zm81.72-6.54c-1.48,2.36-2.4,5.08-4.24,7.21a70.44,70.44,0,0,1-7.08-.84c1.31,1.57,2.77,3,4.05,4.62.41.61.94,1.4.63,2.17-.79,2.08-1.88,4-2.69,6.09,2.3-1,4.33-2.62,6.75-3.33,2.54,1.07,4,3.7,6.15,5.35-.1-2.78-1.25-5.58-.73-8.33,2.08-1.54,4.66-2.24,6.77-3.77-2.31-.59-4.72-.51-7-1C290.42,147,292.06,143.18,290.59,140.63ZM264,163.72c-.16,2.32-.29,4.63-.56,6.94-2.62,1-5.17,2.17-7.73,3.31,2.37,1.38,5.29,1.59,7.52,3.21.51,2.56-.61,5.29-.22,7.94,1.51-1.83,3-3.67,4.51-5.51,2.83.66,5.65,1.38,8.5,2-1.23-2.37-2.83-4.54-4.09-6.89.91-2.54,3.1-4.37,4.59-6.58-2.7.41-5.29,1.64-8,1.61C266.86,167.86,265.75,165.56,264,163.72Zm-30.49,5.2c-2.3-1.39-4.44-3-6.79-4.32.46,2.24,1.59,4.23,2.35,6.37a2.11,2.11,0,0,1-.57,2.34,52.11,52.11,0,0,1-4.65,3.87c2.59.22,5.52-.7,7.88.53,1.26,2.15,1.85,4.65,3.2,6.77.55-2.16,1-4.35,1.61-6.49.17-.59.44-1.34,1.18-1.32,2.31-.28,4.64-.34,7-.54-2-1.65-4.55-2.68-6.13-4.75.06-2.47,1.38-4.78,1.43-7.29A46.92,46.92,0,0,0,233.55,168.92Z"/><path class="cls-5" d="M205,239.93c16.43-.12,32.86,0,49.28-.05,13,0,26.05-.09,39.07.07-5.6,4.06-11.88,7-18.19,9.79-1.38,2.53-4.75,2.2-7.07,3.38-1.76-.63,0-2.19.3-3.29-1.1-.9-2.19-1.79-3.28-2.7L263,249.36l-3-1.84c.47-.88.94-1.76,1.42-2.64l-4.24-1.77a18.22,18.22,0,0,1-1.78,2.22,27.18,27.18,0,0,1-4-.25v-2.61l-4,0c-.21.72-.35,1.47-.63,2.17a24.43,24.43,0,0,1-3.78,1c-.7-.91-1.4-1.82-2.12-2.72l-3.78,2,1.46,2.63c-1.13.64-2.25,1.29-3.36,1.94L233.33,247l-3.8,2.87,1.89,2.46-.65.69a34.56,34.56,0,0,1-5.09-1.5c-2.47-1-4.84-2.3-7.26-3.42A85.42,85.42,0,0,1,205,239.93Z"/><path class="cls-5" d="M182.72,242.59a8.25,8.25,0,0,1,2.9,1.9,101.73,101.73,0,0,0,49.69,23.14c1.81.28,3.46-.64,5-1.4l-2-.83c1.29-4.41,5.62-7.34,10.05-7.86a12.44,12.44,0,0,1,11.69,7.23c-.57.41-1.14.84-1.71,1.27,4,2,8.67.68,12.85-.15a97.69,97.69,0,0,0,40.42-19.81,31.85,31.85,0,0,1,4.67-3.51,36.4,36.4,0,0,1,4.26,7.29c1.33,2.78,3,5.45,3.82,8.44.68,2.6,1.59,5.21,1.51,7.93a3.91,3.91,0,0,0,.54,2.35l.22.53c1.28,7.34,2.72,14.66,4,22-1.65.38-3.29.79-4.94,1.18-.39,1.09-.2,2.82-1.53,3.26-2.27.44-4.56.74-6.78,1.39,0,1.4-.05,2.79-.07,4.19a49.39,49.39,0,0,0-9.85,1.27l-.62.24c-.09,1.05-.11,2.09-.14,3.13-5.36,0-10.7,0-16.06,0-.32-2.26-.18-4.6-.78-6.81a21.42,21.42,0,0,0-2.75-1.57l-.51-.29c0,1.51.11,3,.26,4.55a48.82,48.82,0,0,0-6.14.77l-.27.06a5,5,0,0,0-.18,1.89l0,.78c-2.85.16-5.71.11-8.57.08-1.23-1.09-2.65-2.11-4.39-2-1.75-.53-2.06,2.24-3.74,1.91a71.65,71.65,0,0,1-7.16-.83l.36-.31a30.78,30.78,0,0,1,6.36-.34c2.68-2.29,6.92-1.95,9.72,0a21.78,21.78,0,0,0,5.29-.11c1.26-.83,1.08-2.57,1.49-3.86,1.83-.07,3.67-.1,5.51-.1a40.32,40.32,0,0,0-.47-4.14c-.52,1.13-.94,2.32-1.5,3.43-1.42.62-3.08.33-4.6.44,0-2.94.43-6.14-1.35-8.7-.29,3.72-.27,7.46-.69,11.17-1.42-.26-3.61.52-4.36-1.12-.93-3.55-.12-7.32-1.29-10.83-.45.42-.9.84-1.34,1.27q0,4.56,0,9.13h-5a24.65,24.65,0,0,0-.24-3.44c-.58-.33-1.16-.62-1.75-.89-.17,2.26-.34,4.52-.6,6.77h-5.44c-.22-1.86-.42-3.72-.73-5.57-1.32,1-1.56,2.7-2.54,3.92a25.61,25.61,0,0,1-7.47-.11,25.62,25.62,0,0,0-2.1-3.81c-.5,1.69-.89,3.41-1.26,5.14h-5.53c-.18-2.09-.35-4.19-.57-6.28-.61.49-1.81.6-1.84,1.57s-.17,1.79-.23,2.69h-5c-.08-2.9.13-5.82-.07-8.72-.05-.88-.84-1.45-1.34-2.08l0,1.71c-.64,3.48-.6,7-1,10.55l-4.46,0c0-3.71.26-7.44-.44-11.11-2.25,2-.55,5.3-1.36,7.86-1.07,1.38-3.09.54-4.59.64-.42-1.09-.08-2.76-1.29-3.36a9.28,9.28,0,0,0-.58,3.85c1.92,0,3.85,0,5.77.09.46,1.32.91,2.65,1.36,4,1.76,0,3.51.06,5.26,0a8.73,8.73,0,0,1,7.18-1.34c1.48.34,2.8,1.28,4.35,1.37,1.77.11,3.56,0,5.34,0a14.39,14.39,0,0,1,2.25-1.88,50.12,50.12,0,0,1,7-.11c1.44-.09,2.55.95,3.68,1.68l-1.17,1-1.44-.1a15.29,15.29,0,0,0-7.86-.1l-.08,0-1.37,1c-3,0-6.08.1-9.11,0-1.41,0-2-1.76-3.29-2s-2.39.52-3.43,1.1l-.09.06a4.14,4.14,0,0,1-2.46.87c-2.43.05-4.87,0-7.3-.1a18.43,18.43,0,0,0-.59-2.49c-1.94-.93-4.18-.71-6.25-1-.09-1.44-.12-2.86-.14-4.29-.81.38-1.62.76-2.4,1.21a12.88,12.88,0,0,0-.78,6.73,11.44,11.44,0,0,1-3.18.38c-4.27-.14-8.53-.27-12.8-.36-.23-1.14-.46-2.29-.7-3.42-3.4-.43-6.8-.71-10.2-1.13a15.66,15.66,0,0,0,.29-3.27c-.42-.74-1.32-.77-2.05-.93-1.83-.3-3.66-.57-5.47-.89a16.38,16.38,0,0,0-1.26-3.43,24.57,24.57,0,0,0-4.72-1.12c1.62-11.11,4-22.11,6.07-33.14,1.26-3.42,3.23-6.51,4.91-9.74A41.89,41.89,0,0,1,182.72,242.59Zm2,5.76c1.74,7.1,5.45,13.51,9.76,19.34-6.61-3.47-9.19-11-12.18-17.34-1.37-.08-1.49,2.16-1,3.12a39.38,39.38,0,0,0,12.21,15.22,68.33,68.33,0,0,0,19.47,10.93c6.76,2.19,14.2,3.46,21.14,1.31-8.41.66-17.22-1-24.27-5.8s-12-12.32-15.16-20.17a5,5,0,0,0-2.33-2.46c.77,6.3,4.08,12.05,8.33,16.66,1.68,2,3.82,3.54,5.48,5.56-3.38-.41-5.47-3.31-7.9-5.34-4.53-3.74-7.2-9.17-9.45-14.49-.92-2-1.3-4.28-2.39-6.23Zm127.4.91c-.78,1.73-1.2,3.58-1.88,5.35a45,45,0,0,1-13.8,18.63,5.17,5.17,0,0,1-3.24,1,93.71,93.71,0,0,0,7.15-7.36,32.15,32.15,0,0,0,6.81-14.38,7.72,7.72,0,0,0-3.18,3.2c-2.06,4.05-3.53,8.49-6.58,12a35.62,35.62,0,0,1-27.26,13.28c-1.74,0-3.47-.2-5.21-.06,5.72,1.82,11.89,1.18,17.59-.39,8.51-1.95,16.32-6.24,23.19-11.54a40.05,40.05,0,0,0,12.43-15.75c.56-1.14-.18-2.25-.86-3.13-3.32,6.31-6,13.83-12.52,17.53,4-6,7.95-12.17,9.5-19.28C313.55,248.59,312.37,248.36,312.1,249.26Zm-136,13.46q-1.73,9-3.47,18a77.43,77.43,0,0,0-1.46,9,16,16,0,0,1,3.6,1c1,.8,1.15,2.32,2.06,3.22,2.26.9,4.72,1.09,7,1.78.27,1.19,0,3,1.46,3.42,2.4.46,4.9.19,7.27.85,1.65.52,1.18,2.82,2.53,3.66,4,.24,8.1,0,12.15.08,0-6.78,0-13.56,0-20.34a19.47,19.47,0,0,0-.47-3.95c-.47.39-1.44.44-1.45,1.21-.41,2.69-.18,5.42-.36,8.13,0,4.31-.68,8.67.23,12.93-3,0-6,0-9.06,0l-.09-2.07,3.05-.1c.12-5.94.32-11.88.51-17.82a15.32,15.32,0,0,0-1.06-5.79c-1.29,3.8-1,7.84-1.21,11.78-.08,3.31-.37,6.62-.69,9.92-3.34,0-6.68,0-10,0,.07-.81-.27-1.77.19-2.47a31.8,31.8,0,0,1,3.24,0c.61-7.92,1.4-15.84,2-23.76.19-1.42-1.44-1.78-2.36-2.36-.56,8.18-1.05,16.38-1.52,24.56-3.37-.34-6.72-.93-10.07-1.46.17-.68.34-1.36.52-2l3.11,0a76.43,76.43,0,0,0,1.33-8.92c.64-5.26,1.34-10.51,2-15.78,0-.84.16-2.68-1.06-2.59-1.13,2.34-1.22,5-1.63,7.5-.94,6.1-1.71,12.23-2.79,18.31-2-.34-3.92-.67-5.88-1,1.68-7.7,2.58-15.56,3.94-23.32a47.92,47.92,0,0,0,1-8.85C176.68,257.39,176.67,260.23,176.13,262.72Zm144.34-7.34c-.38,3.05.43,6,.9,9,1.32,7.74,2.65,15.48,4,23.22q-2.81.32-5.61.48c-.9-6.1-1.9-12.19-2.82-18.29a22.25,22.25,0,0,0-1.52-6.44c-1.17-.56-1.35,1.15-1.19,1.94,1.23,8,2,16.05,3,24.06.09,1.78,2.45,1.12,3.68,1.41,0,.48-.07,1.43-.1,1.91-3.2.26-6.39.66-9.59,1-.7-8-1.3-16.09-2-24.13a6.69,6.69,0,0,0-1.81,1.35,25,25,0,0,0,0,4.82c.48,6.66.62,13.34,1.37,20l3.55.06c0,.47,0,1.4,0,1.86-3.35.08-6.69,0-10,.06-.26-5.52-.38-11.05-.52-16.58-.09-1.77-.24-3.7-1.51-5.07a18.3,18.3,0,0,0-1,5.71c.16,6.13.58,12.25.4,18.39l3.07.09c0,.68-.08,1.38-.11,2.07-2.52-.08-5,.09-7.55-.08-1.19.15-.86-1.25-1-2-.48-6.78-.89-13.56-1.4-20.34a5.13,5.13,0,0,0-1,3q0,10.71,0,21.4c4.24-.25,8.51-.23,12.73-.68.95-.76.91-2.23,1.64-3.19,2.73-1,5.82-.63,8.44-1.91.51-1,.77-2.15,1.27-3.17,2.1-.8,4.43-.74,6.51-1.57,1-.78,1.51-2.08,2.45-3a20.92,20.92,0,0,1,3.54-.58,42.08,42.08,0,0,0-1.23-7.39c-1.56-7.58-3.14-15.15-4.68-22.73C322,258.42,322,256.46,320.47,255.38Zm-122.65,1.13c4.54,9.69,12.37,18.87,23.12,21.56,7.15,1.89,14.42-.4,21.19-2.66a5.59,5.59,0,0,0-3.24,0c-3,.56-6,1.37-9.08,1.2a32.39,32.39,0,0,1-14-3.57c-6.79-3.39-12.14-9.08-16.29-15.33A2.71,2.71,0,0,0,197.82,256.51Zm100.82,2.72a47.78,47.78,0,0,1-6.31,7.73A32,32,0,0,1,269,276.74c-3.54.06-6.92-1.08-10.37-1.63a2.89,2.89,0,0,0-1.82.3c2.39.87,4.87,1.44,7.3,2.19a27.1,27.1,0,0,0,22.47-2.78c6.72-4.31,11.22-11.24,14.67-18.28C299.89,256.84,299.34,258.18,298.64,259.23ZM207,261.54a27.67,27.67,0,0,0,13.35,10.72c6.35,2.4,13.38,2.37,19.94.92-2-.89-4.19-.3-6.28-.21-7.42.48-14.76-2.35-20.62-6.79C211.23,264.66,209.66,262.24,207,261.54Zm39.47.45c-2,.87-4,2.36-4.5,4.57a6.87,6.87,0,0,0,2.31,6.81c3,2.7,8.25,2.62,10.86-.6,1.63-1.8,1.59-4.43,1.18-6.67C255,262.2,250.11,260.53,246.46,262Zm39.4,4a29,29,0,0,1-19,7.21c-2.74.09-5.46-.93-8.19-.29a30.67,30.67,0,0,0,11.42,1.42c9-.49,17.25-5.69,22.49-12.84C289.71,262,287.92,264.3,285.86,266Zm-62.61,1.65c3.16,3.17,7.92,3.2,12.09,3.14,1.54-.16,3.35.17,4.57-1-2.42-.22-4.86-.12-7.26-.49C229.49,268.88,226.41,268,223.25,267.68Zm44.16,1.51a73.5,73.5,0,0,1-8.12.56l1.08.7a42.42,42.42,0,0,0,7.56,0c2.8-.29,5.86-.73,7.94-2.82C273,268,270.25,268.79,267.41,269.19ZM240.5,279.85a15.08,15.08,0,0,0,16,.81c-1.45-.73-2.83-2.3-4.59-1.86a19.44,19.44,0,0,1-4.07.5,30.78,30.78,0,0,1-4.33-1.18C242.26,278.16,241.39,279.14,240.5,279.85Zm-31.75,4.28c.5.47,1,.95,1.55,1.38,1.34-.94,3.37-1.93,3.35-3.79C211.73,281.69,210.32,283.25,208.75,284.13Zm26.8-.52a20.14,20.14,0,0,0,15.54,5.11,21.68,21.68,0,0,0,12-5.07,7.68,7.68,0,0,0-2.28-1.24,16.16,16.16,0,0,0-3.22,1.48,17.8,17.8,0,0,1-14.09,1.41c-2.32-.91-4.24-2.59-6.54-3.54C236.31,282.13,234.75,282.7,235.55,283.61Zm49.58-1.92c.54,1.7,2,2.82,3.46,3.76a23.57,23.57,0,0,0,2.14-1.21C289,283.19,287.24,281.86,285.13,281.69Zm-68,.84c-1.76.91-3.33,2.15-5,3.15-1.31.86-3.11,1.57-3,3.45,3.33-1.82,6.46-4,9.7-6C218.26,282.78,217.75,282,217.09,282.53Zm63.94.68a89.09,89.09,0,0,0,8.88,5.87l-.13-1.32a74.81,74.81,0,0,0-6.75-4.85C282.39,282.43,280.52,281.73,281,283.21Zm-66,3.71c-2.06,1.49-4.52,2.59-6.16,4.55l.88.83c3.92-2.32,7.68-4.9,11.64-7.15a1.77,1.77,0,0,1,2.47.4c-4.76,3.14-9.87,5.73-14.67,8.79,1.87,1.46,3.73-.46,5.4-1.29,4.22-2.72,8.92-4.77,12.84-7.94-2-.8-4-2-6.21-2A67.69,67.69,0,0,0,215,286.92Zm57.49-2.27c0,.16,0,.49,0,.66,5,3.35,10.36,6.31,15.49,9.54.77.74,1.59-.24,2.3-.55-4.9-3-10-5.78-14.86-8.84l1.25-.61c2.06.55,3.64,2.21,5.47,3.26,2.58,1.52,4.81,3.79,7.79,4.47l.24-1.46c-4.06-2.54-7.92-5.41-12-7.88C276.25,283.31,274.06,283.49,272.48,284.65Zm-44.82,2.1a43.89,43.89,0,0,0,4.77,3.85A4.56,4.56,0,0,1,236,291c-.35.68-.69,1.36-1,2a35.47,35.47,0,0,0,5.88,2c1.48.26,3.06-1.76,4.35-.31,1.79,1.57,4.35.87,6.53,1,1.5.21,2.57-.87,3.72-1.62,1,0,1.79.79,2.73,1.1a58,58,0,0,0,6.38-2.09c-.17-.73-.34-1.45-.5-2.18a4.75,4.75,0,0,1,1.66-.4c2.62.4,4.83-1.66,6.5-3.43-1.24,0-2.46.07-3.69.14L266.79,289c-1.42-.42-3-.9-4.18.32a20.25,20.25,0,0,1-.36,2.46c-.82.95-2.12,1.28-3.21,1.82-.63-.68-1.11-1.59-2-2-1.39-.12-2.72.47-4.07.73l-.89,1.78a22.76,22.76,0,0,1-5-.13c-.15-.56-.3-1.12-.44-1.67-1.37-.3-2.76-1-4.19-.71a13,13,0,0,0-2,2l-3.41-1.32a17.19,17.19,0,0,0,.18-2.77c-1-1.78-3.13-.8-4.64-.52-.64-.7-1.26-1.41-1.88-2.12C229.72,286.86,228.69,286.79,227.66,286.75Z"/><path class="cls-6" d="M250.12,115c2,4.68,3.54,9.53,5.18,14.35,5.16.07,10.32-.05,15.49.06-3.68,3-7.57,5.75-11.31,8.69-.46.48-1.41,1-1,1.8,1.33,4.72,3.2,9.28,4.5,14-3.81-2.39-7.36-5.18-11-7.78a3.09,3.09,0,0,0-3.83,0c-3.53,2.62-7.08,5.23-10.6,7.86,1.26-5,2.87-9.92,4.19-14.92-3.37-2.82-7-5.32-10.44-8a10.78,10.78,0,0,1-1.44-1.65c5.1-.09,10.2.08,15.3-.09C246.86,124.52,248.41,119.7,250.12,115Z"/><path class="cls-6" d="M208.87,147.17c1-2.39.75-5.13,1.56-7.6q2.48,3.41,4.88,6.87c2.31-.35,4.62-.69,6.93-.95-2,2-3.8,4.18-5.73,6.24,1.05,2.4,2.25,4.75,3.2,7.19-2.4-.92-4.33-2.69-6.66-3.72-2.34,1.3-4,3.51-6.19,5.07.22-2.26.76-4.49.88-6.76.2-1-.82-1.45-1.53-1.87-1.77-.91-3.57-1.73-5.28-2.74C203.57,148.27,206.25,147.87,208.87,147.17Z"/><path class="cls-6" d="M290.59,140.63c1.47,2.55-.17,6.41,2.57,8.21,2.32.45,4.73.37,7,1-2.11,1.53-4.69,2.23-6.77,3.77-.52,2.75.63,5.55.73,8.33-2.17-1.65-3.61-4.28-6.15-5.35-2.42.71-4.45,2.34-6.75,3.33.81-2.07,1.9-4,2.69-6.09.31-.77-.22-1.56-.63-2.17-1.28-1.61-2.74-3.05-4.05-4.62a70.44,70.44,0,0,0,7.08.84C288.19,145.71,289.11,143,290.59,140.63Z"/><path class="cls-6" d="M264,163.72c1.71,1.84,2.82,4.14,4.5,6,2.73,0,5.32-1.2,8-1.61-1.49,2.21-3.68,4-4.59,6.58,1.26,2.35,2.86,4.52,4.09,6.89-2.85-.59-5.67-1.31-8.5-2-1.49,1.84-3,3.68-4.51,5.51-.39-2.65.73-5.38.22-7.94-2.23-1.62-5.15-1.83-7.52-3.21,2.56-1.14,5.11-2.31,7.73-3.31C263.75,168.35,263.88,166,264,163.72Z"/><path class="cls-6" d="M233.55,168.92a46.92,46.92,0,0,1,6.47-4.83c-.05,2.51-1.37,4.82-1.43,7.29,1.58,2.07,4.15,3.1,6.13,4.75-2.32.2-4.65.26-7,.54-.74,0-1,.73-1.18,1.32-.62,2.14-1.06,4.33-1.61,6.49-1.35-2.12-1.94-4.62-3.2-6.77-2.36-1.23-5.29-.31-7.88-.53a52.11,52.11,0,0,0,4.65-3.87,2.11,2.11,0,0,0,.57-2.34c-.76-2.14-1.89-4.13-2.35-6.37C229.11,165.89,231.25,167.53,233.55,168.92Z"/></svg>